<?xml version="1.0" encoding="UTF-8"?>
<svg id="Calque_2" xmlns="http://www.w3.org/2000/svg" viewBox="0 0 269.23 269.78">
  <g id="Calque_1-2" data-name="Calque_1">
    <path d="M134.93.28s14.96,24.93-9.97,24.93-44.87-19.94-84.75,14.96c0,0,28.2,7.05,10.58,24.67C33.15,82.48,3.84,82.02.32,134.89c0,0,24.93-15.58,24.93,9.35s-19.94,44.87,14.96,84.75c0,0,7.05-28.2,24.67-10.58,17.63,17.63,17.17,47.56,70.05,51.08h-.62s-14.96-24.93,9.97-24.93,44.87,19.94,84.75-14.96c0,0-28.2-7.05-10.58-24.68,17.63-17.63,46.93-17.17,50.46-70.05,0,0-24.93,15.58-24.93-9.35s19.94-44.87-14.96-84.75c0,0-7.05,28.2-24.68,10.58C186.72,33.75,187.18,3.81,134.3.28h.63Z" style="fill: #ededed;"/>
    <path d="M134.93.28s14.96,24.93-9.97,24.93-44.87-19.94-84.75,14.96c0,0,28.2,7.05,10.58,24.67C33.15,82.48,3.84,82.02.32,134.89c0,0,24.93-15.58,24.93,9.35s-19.94,44.87,14.96,84.75c0,0,7.05-28.2,24.67-10.58,17.63,17.63,17.17,47.56,70.05,51.08h-.62s-14.96-24.93,9.97-24.93,44.87,19.94,84.75-14.96c0,0-28.2-7.05-10.58-24.68,17.63-17.63,46.93-17.17,50.46-70.05,0,0-24.93,15.58-24.93-9.35s19.94-44.87-14.96-84.75c0,0-7.05,28.2-24.68,10.58C186.72,33.75,187.18,3.81,134.3.28h.63Z" style="fill: none; stroke: #9d9d9c; stroke-width: .57px;"/>
    <path d="M229.65,134.89c0,52.31-42.41,94.72-94.72,94.72s-94.72-42.41-94.72-94.72,42.41-94.72,94.72-94.72,94.72,42.41,94.72,94.72Z" style="fill: #f6f6f6;"/>
    <path d="M229.65,134.89c0,52.31-42.41,94.72-94.72,94.72s-94.72-42.41-94.72-94.72,42.41-94.72,94.72-94.72,94.72,42.41,94.72,94.72Z" style="fill: none; stroke: #9d9d9c; stroke-width: .57px;"/>
    <polygon points="134.93 189.73 87.43 162.31 87.43 107.48 134.93 80.06 182.42 107.48 182.42 162.31 134.93 189.73" style="fill: #fff;"/>
    <polygon points="134.93 189.73 87.43 162.31 87.43 107.48 134.93 80.06 182.42 107.48 182.42 162.31 134.93 189.73" style="fill: none; stroke: #9d9d9c; stroke-width: .57px;"/>
    <path d="M213.65,135.65c0,13.24-1.18,24.22-3.54,32.93-2.36,8.71-6.94,16.88-13.73,24.51-7.53,8.64-16.79,15.33-27.78,20.08-11,4.75-22.33,7.12-33.98,7.12s-22.47-2.2-32.88-6.58c-10.41-4.39-19.59-10.47-27.56-18.24s-14.21-16.73-18.71-26.88c-4.5-10.15-6.75-20.83-6.75-32.06s2.25-22.42,6.75-32.71,10.77-19.32,18.82-27.1c8.04-7.77,17.34-13.85,27.9-18.24,10.55-4.39,21.73-6.58,33.54-6.58,14.31,0,27.41,3.02,39.3,9.07,11.88,6.05,22.32,14.76,31.33,26.12l-13.5,12.31c-7.23-9.93-15.61-17.52-25.13-22.78-9.52-5.25-20.26-7.88-32.21-7.88-9.3,0-18.12,1.8-26.46,5.4-8.34,3.6-15.65,8.57-21.92,14.9-6.28,6.34-11.15,13.6-14.61,21.81-3.47,8.2-5.2,16.84-5.2,25.91s1.7,16.91,5.09,24.83c3.39,7.92,8.19,14.97,14.39,21.16,6.34,6.19,13.73,11.19,22.14,15.01,8.41,3.82,16.83,5.72,25.24,5.72,7.23,0,14.42-1.22,21.58-3.67s13.58-5.97,19.26-10.58c5.68-4.6,10.22-10.04,13.62-16.3,3.39-6.26,5.09-13.06,5.09-20.4h-49.59v-16.84h69.52l-.02-.04Z" style="fill: #e30613;"/>
    <path d="M213.65,135.65c0,13.24-1.18,24.22-3.54,32.93-2.36,8.71-6.94,16.88-13.73,24.51-7.53,8.64-16.79,15.33-27.78,20.08-11,4.75-22.33,7.12-33.98,7.12s-22.47-2.2-32.88-6.58c-10.41-4.39-19.59-10.47-27.56-18.24s-14.21-16.73-18.71-26.88c-4.5-10.15-6.75-20.83-6.75-32.06s2.25-22.42,6.75-32.71,10.77-19.32,18.82-27.1c8.04-7.77,17.34-13.85,27.9-18.24,10.55-4.39,21.73-6.58,33.54-6.58,14.31,0,27.41,3.02,39.3,9.07,11.88,6.05,22.32,14.76,31.33,26.12l-13.5,12.31c-7.23-9.93-15.61-17.52-25.13-22.78-9.52-5.25-20.26-7.88-32.21-7.88-9.3,0-18.12,1.8-26.46,5.4-8.34,3.6-15.65,8.57-21.92,14.9-6.28,6.34-11.15,13.6-14.61,21.81-3.47,8.2-5.2,16.84-5.2,25.91s1.7,16.91,5.09,24.83c3.39,7.92,8.19,14.97,14.39,21.16,6.34,6.19,13.73,11.19,22.14,15.01,8.41,3.82,16.83,5.72,25.24,5.72,7.23,0,14.42-1.22,21.58-3.67s13.58-5.97,19.26-10.58c5.68-4.6,10.22-10.04,13.62-16.3,3.39-6.26,5.09-13.06,5.09-20.4h-49.59v-16.84h69.52l-.02-.04Z" style="fill: none; stroke: #1d1d1b; stroke-width: .57px;"/>
  </g>
</svg>