<?xml version="1.0" encoding="UTF-8"?>
<svg id="Calque_1" xmlns="http://www.w3.org/2000/svg" viewBox="0 0 715.5 714.91">
  <path fill="currentColor" d="M705.62,546.64l-102.07-165.86c-9.65-15.68-30.18-20.57-45.86-10.92-15.68,9.65-20.57,30.18-10.92,45.86l102.07,165.86h-193.21l9.76-9.76c13.02-13.02,13.02-34.12,0-47.14s-34.12-13.02-47.14,0l-66.66,66.66c-.39.39-.77.79-1.14,1.2-.17.18-.32.37-.48.56-.19.22-.39.45-.58.67-.2.25-.39.5-.59.75-.14.18-.28.35-.41.53-.21.28-.41.56-.6.85-.11.16-.22.31-.33.47-.2.3-.39.6-.57.9-.1.16-.2.32-.3.48-.18.3-.35.59-.51.89-.1.18-.2.35-.3.53-.15.28-.29.57-.44.85-.1.21-.21.41-.31.62-.12.26-.24.52-.36.79-.11.24-.22.49-.32.73-.1.23-.18.46-.27.7-.11.28-.22.56-.32.85-.07.2-.14.41-.21.61-.11.32-.21.64-.31.96-.05.18-.1.36-.15.54-.1.35-.19.69-.28,1.04-.04.16-.08.33-.11.49-.08.36-.17.73-.24,1.09-.03.17-.06.33-.09.5-.07.36-.13.73-.18,1.09-.03.19-.05.39-.07.58-.04.34-.09.68-.12,1.03-.02.25-.04.51-.06.76-.02.29-.05.57-.06.86-.02.46-.03.92-.04,1.39,0,.09,0,.17,0,.25s0,.17,0,.25c0,.46.01.92.04,1.39.01.29.04.58.06.86.02.25.03.51.06.76.03.34.08.68.12,1.03.02.19.05.39.07.58.05.37.12.73.18,1.09.03.17.06.34.09.5.07.37.15.73.24,1.09.04.17.07.33.11.5.09.35.18.7.28,1.04.05.18.1.36.15.54.1.32.2.64.31.96.07.2.14.41.21.61.1.28.21.57.32.85.09.23.18.47.28.7.1.24.21.49.32.73.12.26.23.53.36.79.1.21.2.41.3.61.14.29.29.58.44.86.09.18.19.35.29.52.17.3.34.61.52.91.09.16.19.31.29.46.19.31.38.61.58.91.1.15.21.3.32.45.2.29.41.58.62.87.13.17.26.33.39.5.2.26.4.52.61.78.17.21.35.41.53.62.18.21.35.41.53.62.34.37.68.73,1.03,1.09.03.03.06.07.1.1l66.67,66.67c6.51,6.51,15.04,9.76,23.57,9.76,8.53,0,17.06-3.26,23.57-9.76,13.02-13.02,13.02-34.12,0-47.14l-9.76-9.76h193.21c24.13,0,46.43-13.08,58.2-34.15s11.22-46.91-1.42-67.46Z"/>
  <path fill="currentColor" d="M226.03,244.26c16.21,8.73,36.42,2.66,45.15-13.55l88.33-164.05,90.72,157.12-16.44-4.4c-17.78-4.77-36.06,5.79-40.83,23.57-4.77,17.78,5.79,36.06,23.57,40.83l91.07,24.4c2.84.76,5.74,1.14,8.63,1.14,5.8,0,11.56-1.52,16.67-4.47,7.1-4.1,12.41-10.65,14.97-18.39,1.22-2.83,2.04-5.83,2.44-8.88l22.52-84.04c4.76-17.78-5.79-36.06-23.57-40.82-17.78-4.76-36.06,5.79-40.82,23.57l-2.74,10.24-88.45-153.19C405.34,12.7,383.29,0,359.52,0c-.33,0-.66,0-.99,0-24.15.36-46.26,13.79-57.71,35.05l-88.33,164.05c-8.73,16.21-2.66,36.42,13.55,45.15Z"/>
  <path fill="currentColor" d="M241.83,581.58H66.78l96.37-163.83,3.62,13.52c3.99,14.89,17.46,24.71,32.18,24.71,2.85,0,5.76-.37,8.65-1.14,17.78-4.76,28.33-23.04,23.57-40.83l-22.77-84.98c-.81-10.5-6.56-20.45-16.33-26.19-5.47-3.22-11.47-4.69-17.38-4.6-2.89,0-5.82.35-8.74,1.14l-91.07,24.4c-17.78,4.77-28.33,23.04-23.57,40.82,4.76,17.78,23.05,28.33,40.82,23.57l13.14-3.52L9.32,547.78c-12.28,20.87-12.43,45.88-.41,66.9,12.02,21.02,33.66,33.57,57.87,33.57h175.05c18.41,0,33.33-14.92,33.33-33.33s-14.92-33.33-33.33-33.33Z"/>
</svg>