<?xml version="1.0" encoding="UTF-8"?>
<svg id="Calque_1" xmlns="http://www.w3.org/2000/svg" viewBox="0 0 683.33 483.33">
  <path d="M641.67,483.33H41.67c-23.01,0-41.67-18.66-41.67-41.67s18.66-41.67,41.67-41.67h600c23.01,0,41.67,18.66,41.67,41.67s-18.66,41.67-41.67,41.67ZM641.67,283.33H41.67c-23.01,0-41.67-18.65-41.67-41.67s18.66-41.67,41.67-41.67h600c23.01,0,41.67,18.65,41.67,41.67s-18.66,41.67-41.67,41.67ZM641.67,83.33H41.67C18.66,83.33,0,64.68,0,41.67S18.66,0,41.67,0h600c23.01,0,41.67,18.66,41.67,41.67s-18.66,41.67-41.67,41.67Z" fill="#7E7E7E"/>
</svg>