<?xml version="1.0" encoding="UTF-8"?>
<svg id="Calque_1" xmlns="http://www.w3.org/2000/svg" viewBox="0 0 460.18 450.14">
  <path d="M265.1,224.64c.5-17.27,2.08-34.35,4.67-51.36,3.19-20.93,7.76-41.55,13.49-61.9,5.82-20.66,12.25-41.16,18.46-61.71,3.39-11.23,6.98-22.4,10.31-33.64,2.52-8.53,9.4-15.01,17.12-15.73,9.77-.92,17.29,3.03,21.32,11.12,3.1,6.2,2.25,12.35.27,18.68-7.03,22.47-14.07,44.94-20.77,67.51-4.49,15.14-8.94,30.32-12.43,45.7-3.49,15.39-5.98,31.03-8.53,46.61-2.7,16.49-2.87,33.17-1.82,49.8.7,10.99,1.77,22.01,3.65,32.85,2.64,15.29,5.7,30.54,9.47,45.59,4.23,16.88,9.3,33.57,14.31,50.25,5.55,18.49,11.54,36.85,17.15,55.32,2.55,8.41-.55,17.26-7.64,22.4-7.41,5.37-15.97,5.23-23.65.4-4.34-2.73-6.83-7.09-8.35-12-6.25-20.17-12.78-40.25-18.72-60.5-5.49-18.7-10.88-37.45-15.35-56.41-3.95-16.77-7.14-33.77-9.57-50.82-1.98-13.93-2.34-28.09-3.42-42.14Z"/>
  <path d="M194.55,219.13c.06,23.18-1.45,40.17-4.02,57.1-3.86,25.4-9.83,50.31-17.13,74.91-7.11,23.95-14.5,47.82-21.78,71.73-1.39,4.57-2.7,9.18-4.27,13.69-3.3,9.53-13.24,15.53-23.95,12.97-11.5-2.75-17.63-14.02-15.26-23.44,2.2-8.74,5-17.32,7.62-25.95,5.49-18.13,11.2-36.19,16.5-54.38,3.81-13.08,7.6-26.2,10.49-39.49,3.38-15.51,6.01-31.2,8.54-46.88,2.47-15.32,2.62-30.79,1.93-46.27-.7-15.74-2.39-31.39-5.77-46.77-4.12-18.77-8.42-37.52-13.41-56.07-4.59-17.07-10.17-33.87-15.34-50.77-3.4-11.13-7.07-22.18-10.24-33.38-3.12-11.04,2.69-21.86,13.57-25.13,10.41-3.13,21.16,1.53,25.13,12.3,3.06,8.28,5.43,16.82,8.04,25.27,4.17,13.44,8.47,26.84,12.38,40.36,4.79,16.55,9.57,33.12,13.71,49.84,3.39,13.66,6.23,27.48,8.61,41.35,3.12,18.2,4.72,36.58,4.65,49.02Z"/>
  <path d="M209.64,224.76c0-67.57,0-135.15-.01-202.72,0-8.79,3.47-15.5,11.3-19.81,11.71-6.44,27.82,1.77,29.37,15.03.25,2.15.39,4.33.39,6.49.02,134.42,0,268.85.04,403.27,0,7.34-1.78,13.82-7.8,18.47-6.21,4.8-13.19,5.84-20.45,2.91-7.15-2.89-11.46-8.29-12.48-16.06-.27-2.05-.34-4.15-.34-6.22-.02-67.12-.01-134.24-.02-201.36Z"/>
  <path d="M38.72,204.48c6.24,0,12.48,0,18.72,0q3.9,0,3.9-3.77c0-10.85-.04-21.71.02-32.56.04-7.91,5.59-12.92,13.37-11.89,1.67.22,3.55,1.06,4.75,2.22,20.47,19.66,40.85,39.4,61.22,59.16,4.96,4.81,4.82,10.09-.33,15.09-10.05,9.76-20.13,19.48-30.2,29.23-9.93,9.62-19.96,19.15-29.74,28.92-3.54,3.54-7.43,3.9-11.66,2.43-4.75-1.65-7.26-5.34-7.37-10.33-.16-7.32-.06-14.65-.06-21.98,0-4.07-.14-8.15.05-12.21.12-2.49-.66-3.27-3.18-3.25-11.94.11-23.88.03-35.82.06-5.35.01-10.37-.77-14.71-4.37-6.58-5.47-9.41-14.84-6.63-22.76,3.12-8.86,10.25-13.99,19.48-14,6.06,0,12.12,0,18.18,0Z"/>
  <path d="M420.98,245.61c-6.42,0-12.85.07-19.27-.04-2.17-.04-2.77.72-2.75,2.84.09,10.94.06,21.89.04,32.84-.02,8.54-4.76,13.23-13.19,12.65-1.78-.12-3.82-1.21-5.14-2.48-19.04-18.29-37.98-36.67-56.91-55.06-2.32-2.25-4.86-4.44-6.55-7.13-2.42-3.85-1.32-7.95,2.52-11.68,18.68-18.13,37.4-36.22,56.11-54.32,1.3-1.26,2.69-2.43,3.89-3.78,3.74-4.19,8.25-4.1,12.88-2.14,4.38,1.86,6.29,5.64,6.34,10.21.12,10.67.02,21.35.06,32.02.02,5.41-.83,4.94,4.88,4.95,12.03.02,24.07.15,36.1-.04,10.27-.16,18.23,7.72,19.84,16.69,1.9,10.6-3.94,20.59-13.7,23.57-2.29.7-4.82.81-7.24.86-5.97.12-11.94.04-17.91.04Z"/>
</svg>