<?xml version="1.0" encoding="UTF-8"?>
<svg id="Calque_1" xmlns="http://www.w3.org/2000/svg" viewBox="0 0 659.61 640.54">
  <path fill="currentColor" d="M329.64,398.32c-77.68,0-155.37,0-233.05,0q-6.82,0-6.82,6.75c0,22-.09,44,.08,66,.03,4.17-1.08,5.79-5.5,5.67-11.9-.32-23.83.26-35.7-.4-24.83-1.37-41.59-17.53-47.23-39.61-1.16-4.55-1.33-9.44-1.34-14.17-.09-45.93-.11-91.87-.03-137.8.03-16.82,5.31-31.6,18.7-42.48,9.89-8.03,21.61-11.68,34.28-11.95,10.56-.22,21.13.1,31.7-.13,4.03-.09,5.11,1.51,5.09,5.23-.1,22.45-.05,44.89-.04,67.34,0,5.78.29,6.11,6,6.11,155.96.01,311.92,0,467.88,0,5.98,0,6.19-.24,6.19-6.38,0-22.15.09-44.3-.07-66.45-.03-4.4,1.23-6.07,5.83-5.86,13.8.64,27.79-.3,41.39,1.61,22.39,3.15,39.45,20.37,41.77,44.38.51,5.31.79,10.67.8,16.01.06,42.96.04,85.92.03,128.88,0,10.68-1.69,20.94-7.28,30.32-6.76,11.35-16.29,19.3-29.05,22.69-6.08,1.61-12.54,2.21-18.86,2.47-9.81.4-19.64-.04-29.46.18-3.87.08-5.19-1.15-5.16-5.09.15-22,.07-44,.07-66q0-7.31-7.16-7.32c-77.68,0-155.37,0-233.05,0Z"/>
  <path fill="currentColor" d="M329.71,262.87c-62.36,0-124.71,0-187.07,0q-6.49,0-6.49-6.62c0-72.1.06-144.2-.06-216.29-.02-12.93,3.59-23.99,14.14-32.05C157.27,2.52,165.19,0,174.24.02c64.59.15,129.18.08,193.76.08.3,0,.6.03.89,0,4.04-.51,5.43,1.14,5.41,5.29-.15,29.14-.11,58.27-.06,87.41.01,8.17.18,16.34.42,24.51.4,14.31,13.25,29.96,30.91,31.79,3.1.32,6.23.46,9.35.46,33.78.03,67.56.02,101.35.02q7.19,0,7.2,6.98c0,33.15,0,66.3,0,99.45q0,6.87-6.69,6.87c-62.36,0-124.71,0-187.07,0Z"/>
  <path fill="currentColor" d="M192.41,532.51c0,26.14-.1,52.29.05,78.43.07,11.63-4.69,20.3-14.74,26.02-17.43,9.94-39.86-2-41.31-21.95-.17-2.37-.24-4.75-.24-7.12-.01-52.29-.01-104.57,0-156.86q0-6.68,6.73-6.69c14.57,0,29.15-.01,43.72,0,5.66,0,5.82.16,5.82,5.72.01,27.48,0,54.96,0,82.44h-.01Z"/>
  <path fill="currentColor" d="M303.01,521.04c0,23.19.09,46.38-.03,69.56-.1,17.59-13.32,30.25-30.53,29.21-12.09-.73-26.09-10.03-26.18-29.1-.21-47.12-.05-94.24-.12-141.36,0-3.68,1.51-5.05,5.06-5.03,15.62.07,31.25.11,46.87-.03,4.03-.04,5.01,1.69,4.99,5.4-.12,23.78-.06,47.57-.06,71.35Z"/>
  <path fill="currentColor" d="M356.6,510.94c0-20.22,0-40.43,0-60.65,0-5.63.25-5.92,5.66-5.93,15.18-.03,30.36.08,45.54-.07,4.25-.04,5.71,1.55,5.7,5.79-.11,39.39-.01,78.78-.1,118.17-.03,15.15-7.02,25.47-19.61,29.61-18.19,5.99-36.69-6.88-37.06-26.28-.38-20.21-.08-40.43-.08-60.64h-.05Z"/>
  <path fill="currentColor" d="M467.19,501.36c0-17.09-.01-34.19,0-51.28,0-5.56.17-5.72,5.83-5.73,15.03-.02,30.06.1,45.09-.07,4.11-.05,5.43,1.42,5.42,5.46-.11,33.3-.27,66.59.01,99.89.16,18.6-15.49,30.59-30.97,29.21-12.9-1.15-24.79-12.39-25.1-25.3-.42-17.38-.1-34.78-.1-52.17-.06,0-.12,0-.18,0Z"/>
  <path fill="currentColor" d="M520.4,115.79c-.83.08-2.37.35-3.91.35-31.82.02-63.64.04-95.45,0-10.56-.01-13.48-2.97-13.49-13.59-.03-31.78-.02-63.56,0-95.35,0-1.65.31-3.31.38-4.05,37.45,37.51,74.95,75.07,112.46,112.64Z"/>
</svg>