<?xml version="1.0" encoding="UTF-8"?>
<svg id="Calque_2" xmlns="http://www.w3.org/2000/svg" viewBox="0 0 533.33 533.33">
  <g id="Calque_1-2" data-name="Calque_1">
    <path fill="currentColor" d="M166.67,200h0s0,0,0,0H33.33c-18.41,0-33.33-14.92-33.33-33.33s14.92-33.33,33.33-33.33h52.86L9.76,56.9C-3.25,43.89-3.25,22.78,9.76,9.76c13.02-13.02,34.12-13.02,47.14,0l76.43,76.43v-52.86C133.33,14.92,148.26,0,166.67,0s33.33,14.92,33.33,33.33v133.24c0,.28,0,.56,0,.84h0s0,.06,0,.08c0,.02,0,.04,0,.06,0,0,0,.01,0,.02-.11,4.06-.95,7.95-2.38,11.52-1.63,4.05-4.08,7.85-7.37,11.13-3.26,3.26-7.03,5.7-11.05,7.33-3.75,1.52-7.84,2.38-12.12,2.43-.04,0-.06,0-.1,0-.03,0-.07,0-.1,0-.03,0-.07,0-.1,0h-.1Z"/>
    <path fill="currentColor" d="M500,200h-133.33s-.09,0-.13,0c-.05,0-.09,0-.14,0-.04,0-.08,0-.12,0h0c-4.28-.05-8.37-.91-12.12-2.43-4.02-1.63-7.79-4.07-11.05-7.33-3.29-3.28-5.74-7.09-7.37-11.14-1.4-3.49-2.23-7.26-2.37-11.22v-.02s0-.02,0-.04c-.01-.43-.02-.86-.02-1.29V33.33C333.33,14.92,348.26,0,366.67,0s33.33,14.92,33.33,33.33v52.86L476.43,9.76c13.02-13.02,34.13-13.02,47.14,0,13.02,13.02,13.02,34.12,0,47.14l-76.43,76.43h52.86c18.41,0,33.33,14.92,33.33,33.33s-14.92,33.33-33.33,33.33Z"/>
    <path fill="currentColor" d="M33.33,533.33c-8.53,0-17.06-3.25-23.57-9.76-13.02-13.02-13.02-34.12,0-47.14l76.43-76.43h-52.86c-18.41,0-33.33-14.92-33.33-33.33s14.92-33.33,33.33-33.33h133.24c.29,0,.56,0,.84,0,.03,0,.06,0,.08,0,.03,0,.05,0,.08,0,4.03.11,7.88.93,11.43,2.35,4.09,1.63,7.92,4.09,11.23,7.4,3.29,3.29,5.75,7.09,7.37,11.16,0,0,0,.01,0,.02,0,.02.01.03.02.05,1.41,3.52,2.23,7.35,2.35,11.35h0s0,.05,0,.07c0,.02,0,.03,0,.05,0,.01,0,.02,0,.03,0,.31.01.62.01.93v133.24c0,18.41-14.92,33.33-33.33,33.33s-33.33-14.92-33.33-33.33v-52.86l-76.43,76.43c-6.51,6.51-15.04,9.76-23.57,9.76Z"/>
    <path fill="currentColor" d="M500,533.33c-8.53,0-17.06-3.25-23.57-9.76l-76.43-76.43v52.86c0,18.41-14.92,33.33-33.33,33.33s-33.33-14.92-33.33-33.33v-133.21c0-.46,0-.92.02-1.37.14-3.91.96-7.64,2.34-11.09,1.63-4.09,4.09-7.92,7.4-11.23,3.21-3.21,6.92-5.63,10.87-7.26.02,0,.03-.01.05-.02,0,0,.01,0,.02,0,3.78-1.55,7.91-2.42,12.23-2.48.03,0,.06,0,.1,0h.1s.07,0,.1,0h.11s0,0,0,0h133.33c18.41,0,33.33,14.92,33.33,33.33s-14.92,33.33-33.33,33.33h-52.86l76.43,76.43c13.02,13.02,13.02,34.12,0,47.14-6.51,6.51-15.04,9.76-23.57,9.76Z"/>
  </g>
</svg>