<?xml version="1.0" encoding="UTF-8"?>
<svg id="Calque_1" xmlns="http://www.w3.org/2000/svg" viewBox="0 0 432.23 307.86">
  <path d="M134.93.28s14.96,24.93-9.97,24.93-44.87-19.94-84.75,14.96c0,0,28.2,7.05,10.58,24.67C33.15,82.47,3.84,82.01.32,134.89c0,0,24.93-15.58,24.93,9.35s-19.94,44.87,14.96,84.75c0,0,7.05-28.2,24.67-10.58,17.63,17.63,17.17,47.56,70.05,51.08h-.62s-14.96-24.93,9.97-24.93,44.87,19.94,84.75-14.96c0,0-28.2-7.05-10.58-24.68,17.63-17.63,46.93-17.17,50.46-70.05,0,0-24.93,15.58-24.93-9.35s19.94-44.87-14.96-84.75c0,0-7.05,28.2-24.68,10.58C186.72,33.74,187.18,3.81,134.3.28h.62Z" style="fill: #ededed;"/>
  <path d="M134.93.28s14.96,24.93-9.97,24.93-44.87-19.94-84.75,14.96c0,0,28.2,7.05,10.58,24.67C33.15,82.47,3.84,82.01.32,134.89c0,0,24.93-15.58,24.93,9.35s-19.94,44.87,14.96,84.75c0,0,7.05-28.2,24.67-10.58,17.63,17.63,17.17,47.56,70.05,51.08h-.62s-14.96-24.93,9.97-24.93,44.87,19.94,84.75-14.96c0,0-28.2-7.05-10.58-24.68,17.63-17.63,46.93-17.17,50.46-70.05,0,0-24.93,15.58-24.93-9.35s19.94-44.87-14.96-84.75c0,0-7.05,28.2-24.68,10.58C186.72,33.74,187.18,3.81,134.3.28h.62Z" style="fill: none; stroke: #9d9d9c; stroke-width: .57px;"/>
  <path d="M229.65,134.89c0,52.31-42.41,94.72-94.72,94.72s-94.72-42.41-94.72-94.72,42.41-94.72,94.72-94.72,94.72,42.41,94.72,94.72Z" style="fill: #f6f6f6;"/>
  <path d="M229.65,134.89c0,52.31-42.41,94.72-94.72,94.72s-94.72-42.41-94.72-94.72,42.41-94.72,94.72-94.72,94.72,42.41,94.72,94.72Z" style="fill: none; stroke: #9d9d9c; stroke-width: .57px;"/>
  <polygon points="134.93 189.73 87.43 162.31 87.43 107.47 134.93 80.05 182.42 107.47 182.42 162.31 134.93 189.73" style="fill: #fff;"/>
  <polygon points="134.93 189.73 87.43 162.31 87.43 107.47 134.93 80.05 182.42 107.47 182.42 162.31 134.93 189.73" style="fill: none; stroke: #9d9d9c; stroke-width: .57px;"/>
  <g>
    <path d="M151.47,278.93h15.05v2.22h-11.81v6.36h11.47v2.22h-11.47v8.41h11.81v2.22h-15.05v-21.42Z" style="fill: #9d9d9c;"/>
    <path d="M170.25,287h3.77l4.73,4.55,4.73-4.55h3.85l-6.62,6.25,7.5,7.1h-3.73l-5.73-5.43-5.77,5.43h-3.85l7.7-7.1-6.58-6.25Z" style="fill: #9d9d9c;"/>
    <path d="M194.11,288.9h.08c.74-.74,1.66-1.3,2.73-1.69,1.08-.39,2.25-.58,3.5-.58s2.46.19,3.54.57c1.08.38,2,.9,2.75,1.56s1.34,1.42,1.75,2.27c.41.85.62,1.74.62,2.67s-.2,1.85-.6,2.7c-.4.85-.98,1.6-1.73,2.26-.76.65-1.67,1.16-2.75,1.52-1.08.36-2.28.54-3.62.54-1.23,0-2.39-.19-3.48-.58-1.09-.39-2-.94-2.71-1.66h-.08v9.38h-3.08v-20.85h3.08v1.9ZM197.44,289.12c-.73.26-1.35.61-1.87,1.07-1.08.93-1.62,2.05-1.62,3.35,0,1.4.53,2.6,1.6,3.59,1.06.99,2.51,1.49,4.33,1.49s3.38-.49,4.45-1.46c1.06-.98,1.6-2.17,1.6-3.59s-.55-2.53-1.65-3.45c-1.1-.92-2.58-1.38-4.43-1.38-.87,0-1.67.13-2.41.38Z" style="fill: #9d9d9c;"/>
    <path d="M214.93,294.16c.03,1.25.59,2.31,1.69,3.17,1.1.86,2.51,1.29,4.23,1.29,1.23,0,2.29-.24,3.19-.72.9-.48,1.67-1.16,2.31-2.03l2.62,1.11c-.87,1.19-2.02,2.12-3.44,2.77s-3.06.98-4.91.98c-1.33,0-2.55-.18-3.64-.53s-2.03-.84-2.81-1.46c-.78-.62-1.38-1.36-1.79-2.2-.41-.84-.62-1.74-.62-2.68s.19-1.92.58-2.8.96-1.65,1.71-2.32c.76-.66,1.68-1.18,2.77-1.55,1.09-.37,2.33-.55,3.71-.55s2.58.18,3.66.54c1.08.36,1.98.87,2.71,1.52s1.29,1.4,1.67,2.24c.38.84.58,1.74.58,2.69,0,.06-.01.14-.04.26v.28h-14.2ZM225.89,292.23c-.21-.98-.81-1.81-1.81-2.49-1-.67-2.17-1.01-3.5-1.01s-2.53.34-3.6,1.02c-1.06.68-1.7,1.51-1.9,2.47h10.81Z" style="fill: #9d9d9c;"/>
    <path d="M236.28,288.45h.08c.64-.62,1.24-1.08,1.79-1.38.55-.29,1.29-.44,2.21-.44.85,0,1.77.21,2.77.62l-1.46,2.07c-.08-.04-.15-.08-.23-.11-.31-.17-.58-.29-.81-.37-.23-.08-.5-.11-.81-.11-.8,0-1.44.16-1.92.48-.49.32-.85.74-1.08,1.25-.23.51-.38,1.02-.44,1.53-.06.51-.1,1.07-.1,1.68v6.68h-3.08v-13.35h3.08v1.45Z" style="fill: #9d9d9c;"/>
    <path d="M250.25,300.35h-3.08v-11.25h-1.88v-2.1h1.88v-4.8h3.08v4.8h3.23v2.1h-3.23v11.25Z" style="fill: #9d9d9c;"/>
    <path d="M271.76,280.84c.44.32.65.7.65,1.14s-.22.84-.65,1.15-.95.47-1.54.47-1.1-.16-1.54-.47c-.44-.31-.65-.7-.65-1.15s.22-.81.65-1.14c.44-.32.95-.48,1.54-.48s1.1.16,1.54.48ZM271.76,300.35h-3.08v-13.35h3.08v13.35Z" style="fill: #9d9d9c;"/>
    <path d="M281.27,288.62h.08c1.31-1.33,3.03-1.99,5.16-1.99,1.21,0,2.21.15,3.02.45.81.3,1.44.72,1.9,1.24s.78,1.13.96,1.82.27,1.45.27,2.29v7.93h-3.08v-7.53c0-.64-.04-1.19-.12-1.65-.08-.45-.24-.87-.48-1.25-.24-.38-.63-.67-1.15-.88-.53-.21-1.21-.31-2.06-.31-1,0-1.81.16-2.42.47-.62.31-1.07.72-1.37,1.21s-.49,1.03-.58,1.6c-.09.58-.13,1.25-.13,2v6.34h-3.08v-13.35h3.08v1.62Z" style="fill: #9d9d9c;"/>
    <path d="M317.67,290.1c-.23-.38-.56-.7-1-.97-.44-.27-.92-.4-1.46-.4s-1.08.14-1.54.43-.69.63-.69,1.05c0,.47.28.85.83,1.14.55.28,1.43.61,2.64.97.26.08.5.15.73.23,1.28.4,2.3.88,3.06,1.45.76.57,1.14,1.36,1.14,2.39,0,1.25-.6,2.29-1.79,3.11-1.19.82-2.64,1.24-4.33,1.24-1.51,0-2.83-.3-3.96-.91-1.13-.61-1.94-1.43-2.42-2.47l2.73-.85c.44.72.92,1.26,1.46,1.61.54.35,1.28.53,2.23.53.85,0,1.54-.19,2.1-.57s.83-.87.83-1.48-.29-1.07-.87-1.41c-.58-.33-1.47-.69-2.67-1.07-.77-.23-1.38-.43-1.85-.61-.46-.18-.91-.41-1.35-.68-.44-.27-.78-.61-1.04-.99-.26-.39-.38-.86-.38-1.41,0-1.1.53-2,1.58-2.71,1.05-.71,2.32-1.07,3.81-1.07,1.03,0,1.98.23,2.87.7.88.46,1.53,1.06,1.94,1.78l-2.58.99Z" style="fill: #9d9d9c;"/>
    <path d="M327.25,294.16c.03,1.25.59,2.31,1.69,3.17,1.1.86,2.51,1.29,4.23,1.29,1.23,0,2.29-.24,3.19-.72.9-.48,1.67-1.16,2.31-2.03l2.62,1.11c-.87,1.19-2.02,2.12-3.44,2.77s-3.06.98-4.91.98c-1.33,0-2.55-.18-3.64-.53s-2.03-.84-2.81-1.46c-.78-.62-1.38-1.36-1.79-2.2-.41-.84-.62-1.74-.62-2.68s.19-1.92.58-2.8.96-1.65,1.71-2.32c.76-.66,1.68-1.18,2.77-1.55,1.09-.37,2.33-.55,3.71-.55s2.58.18,3.66.54c1.08.36,1.98.87,2.71,1.52s1.29,1.4,1.67,2.24c.38.84.58,1.74.58,2.69,0,.06-.01.14-.04.26v.28h-14.2ZM338.22,292.23c-.21-.98-.81-1.81-1.81-2.49-1-.67-2.17-1.01-3.5-1.01s-2.53.34-3.6,1.02c-1.06.68-1.7,1.51-1.9,2.47h10.81Z" style="fill: #9d9d9c;"/>
    <path d="M359.11,290.98h-.08c-.77-.72-1.61-1.27-2.52-1.66-.91-.39-1.94-.58-3.1-.58-.92,0-1.78.13-2.56.38-.78.26-1.46.62-2.02,1.08-.56.46-1.01.99-1.33,1.59-.32.6-.48,1.23-.48,1.89,0,1.36.58,2.53,1.73,3.5,1.15.97,2.66,1.45,4.5,1.45,1.26,0,2.36-.19,3.31-.58.95-.39,1.81-.96,2.58-1.72h.08v3.04c-1.82.91-3.73,1.36-5.73,1.36-1.33,0-2.59-.18-3.77-.53s-2.21-.85-3.08-1.49c-.87-.64-1.55-1.4-2.04-2.26-.49-.86-.73-1.79-.73-2.77s.25-1.9.75-2.76,1.19-1.6,2.08-2.24c.88-.64,1.92-1.15,3.1-1.51s2.42-.54,3.73-.54c.97,0,1.94.11,2.91.34.96.23,1.85.56,2.67.99v3.01Z" style="fill: #9d9d9c;"/>
    <path d="M366.85,294.44c0,.64.04,1.2.13,1.68.09.47.27.9.54,1.28.27.38.68.68,1.23.9.55.22,1.28.33,2.17.33s1.62-.11,2.17-.33c.55-.22.96-.52,1.23-.9.27-.38.45-.8.54-1.28s.13-1.03.13-1.68v-7.44h3.08v7.7c0,1.89-.56,3.37-1.67,4.43-1.12,1.06-2.94,1.59-5.48,1.59s-4.37-.53-5.48-1.59c-1.12-1.06-1.67-2.54-1.67-4.43v-7.7h3.08v7.44Z" style="fill: #9d9d9c;"/>
    <path d="M386.63,288.45h.08c.64-.62,1.24-1.08,1.79-1.38.55-.29,1.29-.44,2.21-.44.85,0,1.77.21,2.77.62l-1.46,2.07c-.08-.04-.15-.08-.23-.11-.31-.17-.58-.29-.81-.37-.23-.08-.5-.11-.81-.11-.8,0-1.44.16-1.92.48-.49.32-.85.74-1.08,1.25-.23.51-.38,1.02-.44,1.53-.06.51-.1,1.07-.1,1.68v6.68h-3.08v-13.35h3.08v1.45Z" style="fill: #9d9d9c;"/>
    <path d="M400.25,280.84c.44.32.65.7.65,1.14s-.22.84-.65,1.15-.95.47-1.54.47-1.1-.16-1.54-.47c-.44-.31-.65-.7-.65-1.15s.22-.81.65-1.14c.44-.32.95-.48,1.54-.48s1.1.16,1.54.48ZM400.25,300.35h-3.08v-13.35h3.08v13.35Z" style="fill: #9d9d9c;"/>
    <path d="M409.91,300.35h-3.08v-11.25h-1.88v-2.1h1.88v-4.8h3.08v4.8h3.23v2.1h-3.23v11.25Z" style="fill: #9d9d9c;"/>
    <path d="M412.91,287h3.58l6.39,9.58,5.85-9.58h3.5l-13.35,20.85h-3.5l5.85-8.75-8.31-12.1Z" style="fill: #9d9d9c;"/>
  </g>
  <path d="M213.65,135.65c0,13.24-1.18,24.22-3.54,32.93-2.36,8.71-6.94,16.88-13.73,24.51-7.53,8.64-16.79,15.33-27.78,20.08-11,4.75-22.33,7.12-33.98,7.12s-22.47-2.2-32.88-6.58c-10.41-4.39-19.59-10.47-27.56-18.24s-14.21-16.73-18.71-26.88c-4.5-10.15-6.75-20.83-6.75-32.06s2.25-22.42,6.75-32.71c4.5-10.29,10.77-19.32,18.82-27.1,8.04-7.77,17.34-13.85,27.9-18.24,10.55-4.39,21.73-6.58,33.54-6.58,14.31,0,27.41,3.02,39.3,9.07,11.88,6.05,22.32,14.76,31.33,26.12l-13.5,12.31c-7.23-9.93-15.61-17.52-25.13-22.78-9.52-5.25-20.26-7.88-32.21-7.88-9.3,0-18.12,1.8-26.46,5.4-8.34,3.6-15.65,8.57-21.92,14.9-6.28,6.34-11.15,13.6-14.61,21.81-3.47,8.2-5.2,16.84-5.2,25.91s1.7,16.91,5.09,24.83c3.39,7.92,8.19,14.97,14.39,21.16,6.34,6.19,13.73,11.19,22.14,15.01,8.41,3.82,16.83,5.72,25.24,5.72,7.23,0,14.42-1.22,21.58-3.67,7.16-2.45,13.58-5.97,19.26-10.58,5.68-4.6,10.22-10.04,13.62-16.3,3.39-6.26,5.09-13.06,5.09-20.4h-49.59v-16.84h69.52Z" style="fill: #e30613;"/>
  <path d="M213.65,135.65c0,13.24-1.18,24.22-3.54,32.93-2.36,8.71-6.94,16.88-13.73,24.51-7.53,8.64-16.79,15.33-27.78,20.08-11,4.75-22.33,7.12-33.98,7.12s-22.47-2.2-32.88-6.58c-10.41-4.39-19.59-10.47-27.56-18.24s-14.21-16.73-18.71-26.88c-4.5-10.15-6.75-20.83-6.75-32.06s2.25-22.42,6.75-32.71c4.5-10.29,10.77-19.32,18.82-27.1,8.04-7.77,17.34-13.85,27.9-18.24,10.55-4.39,21.73-6.58,33.54-6.58,14.31,0,27.41,3.02,39.3,9.07,11.88,6.05,22.32,14.76,31.33,26.12l-13.5,12.31c-7.23-9.93-15.61-17.52-25.13-22.78-9.52-5.25-20.26-7.88-32.21-7.88-9.3,0-18.12,1.8-26.46,5.4-8.34,3.6-15.65,8.57-21.92,14.9-6.28,6.34-11.15,13.6-14.61,21.81-3.47,8.2-5.2,16.84-5.2,25.91s1.7,16.91,5.09,24.83c3.39,7.92,8.19,14.97,14.39,21.16,6.34,6.19,13.73,11.19,22.14,15.01,8.41,3.82,16.83,5.72,25.24,5.72,7.23,0,14.42-1.22,21.58-3.67,7.16-2.45,13.58-5.97,19.26-10.58,5.68-4.6,10.22-10.04,13.62-16.3,3.39-6.26,5.09-13.06,5.09-20.4h-49.59v-16.84h69.52Z" style="fill: none; stroke: #1d1d1b; stroke-width: .57px;"/>
  <path d="M227.58,243.58v-12.12h4.95v29.87h-4.95v-14.66h-22.75v14.66h-4.95v-29.87h4.95v12.12h22.75Z" style="fill: #878787; stroke: #2d2d2d; stroke-width: .5px;"/>
  <g>
    <path d="M202.1,206.55c.02,2.03.49,3.74,1.4,5.14.91,1.4,2.07,2.1,3.49,2.1,1.01,0,1.89-.39,2.63-1.18.74-.78,1.38-1.88,1.9-3.3l2.16,1.8c-.72,1.94-1.67,3.43-2.84,4.49-1.17,1.06-2.52,1.59-4.05,1.59-1.1,0-2.1-.28-3-.85-.9-.57-1.67-1.36-2.32-2.37-.65-1.01-1.14-2.2-1.48-3.57-.34-1.37-.51-2.82-.51-4.36s.16-3.11.48-4.54.79-2.68,1.41-3.76c.62-1.08,1.39-1.91,2.29-2.51.9-.6,1.92-.9,3.06-.9s2.13.29,3.01.88c.89.58,1.63,1.41,2.24,2.47.6,1.06,1.06,2.27,1.38,3.64s.48,2.82.48,4.36c0,.09-.01.23-.03.41v.46h-11.71ZM211.14,203.42c-.17-1.6-.67-2.94-1.49-4.03-.83-1.09-1.79-1.64-2.89-1.64s-2.09.55-2.97,1.66c-.88,1.11-1.4,2.44-1.57,4.01h8.92Z" style="fill: #e30613;"/>
    <path d="M219.71,197.29h.06c.53-1.01,1.02-1.76,1.48-2.23.46-.48,1.06-.71,1.83-.71.7,0,1.46.34,2.28,1.01l-1.21,3.36c-.06-.06-.13-.12-.19-.18-.25-.28-.48-.48-.67-.6-.19-.12-.41-.18-.67-.18-.66,0-1.19.26-1.59.78-.4.52-.7,1.2-.89,2.03s-.31,1.66-.37,2.49-.08,1.74-.08,2.72v10.83h-2.54v-21.66h2.54v2.35Z" style="fill: #e30613;"/>
    <path d="M227.8,178.58h2.54v19.45h.06c.61-1.17,1.36-2.07,2.25-2.72.89-.65,1.84-.97,2.86-.97,1.08,0,2.06.3,2.95.9s1.65,1.43,2.28,2.49c.63,1.06,1.12,2.28,1.44,3.66s.49,2.84.49,4.38-.16,2.95-.49,4.33-.81,2.6-1.44,3.66c-.63,1.06-1.4,1.9-2.28,2.51s-1.86.92-2.92.92-2-.31-2.9-.92-1.65-1.5-2.24-2.67h-.06v3h-2.54v-38.02ZM233.08,198.37c-.6.41-1.12.99-1.54,1.73-.89,1.51-1.33,3.32-1.33,5.44,0,2.27.44,4.22,1.32,5.83.88,1.61,2.07,2.42,3.57,2.42s2.79-.79,3.67-2.37c.88-1.58,1.32-3.53,1.32-5.83s-.46-4.11-1.36-5.6c-.91-1.49-2.13-2.24-3.65-2.24-.72,0-1.38.21-1.98.62Z" style="fill: #e30613;"/>
    <path d="M247.51,206.55c.02,2.03.49,3.74,1.4,5.14.91,1.4,2.07,2.1,3.49,2.1,1.01,0,1.89-.39,2.63-1.18.74-.78,1.38-1.88,1.9-3.3l2.16,1.8c-.72,1.94-1.67,3.43-2.84,4.49-1.17,1.06-2.52,1.59-4.05,1.59-1.1,0-2.1-.28-3-.85-.9-.57-1.67-1.36-2.32-2.37-.65-1.01-1.14-2.2-1.48-3.57-.34-1.37-.51-2.82-.51-4.36s.16-3.11.48-4.54.79-2.68,1.41-3.76c.62-1.08,1.39-1.91,2.29-2.51.9-.6,1.92-.9,3.06-.9s2.13.29,3.01.88c.89.58,1.63,1.41,2.24,2.47.6,1.06,1.06,2.27,1.38,3.64s.48,2.82.48,4.36c0,.09-.01.23-.03.41v.46h-11.71ZM256.55,203.42c-.17-1.6-.67-2.94-1.49-4.03-.83-1.09-1.79-1.64-2.89-1.64s-2.09.55-2.97,1.66c-.88,1.11-1.4,2.44-1.57,4.01h8.92Z" style="fill: #e30613;"/>
    <path d="M265.24,178.58v18.9l.06.09c1.08-2.15,2.5-3.23,4.25-3.23.99,0,1.83.25,2.49.74.67.49,1.19,1.16,1.57,2,.38.85.64,1.83.79,2.95.15,1.12.22,2.36.22,3.71v12.86h-2.54v-12.21c0-1.04-.03-1.94-.09-2.67-.06-.74-.2-1.41-.4-2.03-.2-.61-.52-1.09-.95-1.43-.43-.34-1-.51-1.7-.51-.83,0-1.49.25-2,.76s-.88,1.16-1.13,1.96c-.24.8-.4,1.67-.48,2.6-.07.94-.11,2.02-.11,3.25v10.28h-2.54v-38.02h2.54Z" style="fill: #e30613;"/>
    <path d="M293.07,216.6h-2.54v-3h-.06c-1.29,2.4-3,3.59-5.14,3.59-1.06,0-2.03-.3-2.92-.9-.89-.6-1.65-1.44-2.27-2.51-.62-1.08-1.11-2.3-1.44-3.66-.34-1.37-.51-2.8-.51-4.31s.16-3.04.49-4.42.8-2.6,1.43-3.66c.62-1.06,1.38-1.89,2.27-2.49s1.88-.9,2.98-.9c1.01,0,1.97.32,2.86.97.89.65,1.64,1.55,2.25,2.72h.06v-3.09h2.54v21.66ZM283.67,198.37c-.6.41-1.12.99-1.54,1.73-.89,1.51-1.33,3.32-1.33,5.44,0,2.27.44,4.22,1.32,5.83.88,1.61,2.07,2.42,3.57,2.42s2.79-.79,3.67-2.37c.88-1.58,1.32-3.53,1.32-5.83s-.46-4.11-1.36-5.6c-.91-1.49-2.13-2.24-3.65-2.24-.72,0-1.38.21-1.98.62Z" style="fill: #e30613;"/>
    <path d="M295.3,194.94h2.95l5.27,15.53,4.82-15.53h2.89l-11.01,33.83h-2.89l4.82-14.2-6.85-19.63Z" style="fill: #e30613;"/>
    <path d="M314.84,206.55c.02,2.03.49,3.74,1.4,5.14.91,1.4,2.07,2.1,3.49,2.1,1.01,0,1.89-.39,2.63-1.18.74-.78,1.38-1.88,1.9-3.3l2.16,1.8c-.72,1.94-1.67,3.43-2.84,4.49-1.17,1.06-2.52,1.59-4.05,1.59-1.1,0-2.1-.28-3-.85-.9-.57-1.67-1.36-2.32-2.37-.65-1.01-1.14-2.2-1.48-3.57-.34-1.37-.51-2.82-.51-4.36s.16-3.11.48-4.54.79-2.68,1.41-3.76c.62-1.08,1.39-1.91,2.29-2.51.9-.6,1.92-.9,3.06-.9s2.13.29,3.01.88c.89.58,1.63,1.41,2.24,2.47.6,1.06,1.06,2.27,1.38,3.64s.48,2.82.48,4.36c0,.09-.01.23-.03.41v.46h-11.71ZM323.89,203.42c-.17-1.6-.67-2.94-1.49-4.03-.83-1.09-1.79-1.64-2.89-1.64s-2.09.55-2.97,1.66c-.88,1.11-1.4,2.44-1.57,4.01h8.92Z" style="fill: #e30613;"/>
  </g>
  <g>
    <path d="M240.04,250.5c0,1.04.04,1.95.11,2.72.07.77.22,1.46.44,2.07.22.62.56,1.1,1.02,1.45.45.35,1.05.53,1.79.53s1.34-.18,1.79-.53c.45-.35.79-.84,1.01-1.45.22-.61.37-1.31.44-2.07.07-.77.11-1.67.11-2.72v-12.08h2.54v12.49c0,3.07-.46,5.47-1.38,7.19-.92,1.72-2.43,2.58-4.52,2.58s-3.6-.86-4.52-2.58c-.92-1.72-1.38-4.12-1.38-7.19v-12.49h2.54v12.08Z" style="fill: #e30613;"/>
    <path d="M253.81,222.07h2.54v19.45h.06c.61-1.17,1.36-2.07,2.25-2.72.89-.65,1.84-.97,2.86-.97,1.08,0,2.06.3,2.95.9s1.65,1.43,2.28,2.49c.63,1.06,1.12,2.28,1.44,3.66s.49,2.84.49,4.38-.16,2.95-.49,4.33-.81,2.6-1.44,3.66c-.63,1.06-1.4,1.9-2.28,2.51s-1.86.92-2.92.92-2-.31-2.9-.92-1.65-1.5-2.24-2.67h-.06v3h-2.54v-38.02ZM259.09,241.86c-.6.41-1.12.99-1.54,1.73-.89,1.51-1.33,3.32-1.33,5.44,0,2.27.44,4.22,1.32,5.83.88,1.61,2.07,2.42,3.57,2.42s2.79-.79,3.67-2.37c.88-1.58,1.32-3.53,1.32-5.83s-.46-4.11-1.36-5.6c-.91-1.49-2.13-2.24-3.65-2.24-.72,0-1.38.21-1.98.62Z" style="fill: #e30613;"/>
    <path d="M273.52,250.04c.02,2.03.49,3.74,1.4,5.14.91,1.4,2.07,2.1,3.49,2.1,1.01,0,1.89-.39,2.63-1.18.74-.78,1.38-1.88,1.9-3.3l2.16,1.8c-.72,1.94-1.67,3.43-2.84,4.49-1.17,1.06-2.52,1.59-4.05,1.59-1.1,0-2.1-.28-3-.85-.9-.57-1.67-1.36-2.32-2.37-.65-1.01-1.14-2.2-1.48-3.57-.34-1.37-.51-2.82-.51-4.36s.16-3.11.48-4.54.79-2.68,1.41-3.76c.62-1.08,1.39-1.91,2.29-2.51.9-.6,1.92-.9,3.06-.9s2.13.29,3.01.88c.89.58,1.63,1.41,2.24,2.47.6,1.06,1.06,2.27,1.38,3.64s.48,2.82.48,4.36c0,.09-.01.23-.03.41v.46h-11.71ZM282.56,246.91c-.17-1.6-.67-2.94-1.49-4.03-.83-1.09-1.79-1.64-2.89-1.64s-2.09.55-2.97,1.66c-.88,1.11-1.4,2.44-1.57,4.01h8.92Z" style="fill: #e30613;"/>
    <path d="M291.13,240.78h.06c.53-1.01,1.02-1.76,1.48-2.23.46-.48,1.06-.71,1.83-.71.7,0,1.46.34,2.28,1.01l-1.21,3.36c-.06-.06-.13-.12-.19-.18-.25-.28-.48-.48-.67-.6-.19-.12-.41-.18-.67-.18-.66,0-1.19.26-1.59.78-.4.52-.7,1.2-.89,2.03s-.31,1.66-.37,2.49-.08,1.74-.08,2.72v10.83h-2.54v-21.66h2.54v2.35Z" style="fill: #e30613;"/>
    <path d="M302.01,260.09h-2.54v-18.25h-1.56v-3.41h1.56v-7.79h2.54v7.79h2.67v3.41h-2.67v18.25Z" style="fill: #e30613;"/>
  </g>
</svg>