<?xml version="1.0" standalone="no"?>
<!DOCTYPE svg PUBLIC "-//W3C//DTD SVG 1.1//EN" "http://www.w3.org/Graphics/SVG/1.1/DTD/svg11.dtd" >
<svg xmlns="http://www.w3.org/2000/svg" xmlns:xlink="http://www.w3.org/1999/xlink" version="1.1">
<metadata>
Created by FontForge 20230101 at Mon Apr 16 02:00:14 2007
 By Unknown
COPYRIGHT 1990 The FONT Company ALL Rights Reserved
</metadata>
<defs>
<font id="FuturaH" horiz-adv-x="500" >
  <font-face 
    font-family="FuturaH"
    font-weight="400"
    font-stretch="normal"
    units-per-em="1000"
    panose-1="2 0 5 3 4 0 0 2 0 3"
    ascent="800"
    descent="-200"
    x-height="440"
    cap-height="666"
    bbox="-48 -250 1206 932"
    underline-thickness="20"
    underline-position="-140"
    unicode-range="U+0020-FB02"
  />
<missing-glyph horiz-adv-x="0" 
 />
    <glyph glyph-name="fi" unicode="fi" horiz-adv-x="464" 
d="M183 331v-331h-134v331h-42v109h41v104q0 28 0.5 47.5t3 34t6.5 26t10 24.5q15 32 46.5 49.5t74.5 17.5q24 0 40 -3.5t44 -13.5v-135q-15 11 -25 15.5t-22 4.5q-23 0 -33 -16t-10 -53v-102h214v-440h-134v331h-80z" />
    <glyph glyph-name="fl" unicode="fl" horiz-adv-x="465" 
d="M273 591q-15 11 -25 15.5t-22 4.5q-23 0 -33 -16t-10 -53v-102h85v-109h-84v-331h-135v331h-42v109h41v104q0 28 0.5 47.5t3 34t6.5 26t10 24.5q15 32 46.5 49.5t74.5 17.5q24 0 40 -3.5t44 -13.5v-135zM420 0h-126v718h126v-718z" />
    <glyph glyph-name=".notdef" horiz-adv-x="0" 
 />
    <glyph glyph-name=".null" horiz-adv-x="0" 
 />
    <glyph glyph-name="nonmarkingreturn" horiz-adv-x="226" 
 />
    <glyph glyph-name="space" unicode=" " horiz-adv-x="226" 
 />
    <glyph glyph-name="exclam" unicode="!" horiz-adv-x="213" 
d="M172 199h-130v471h130v-471zM179 68q-1 -30 -22.5 -51t-53.5 -21q-30 0 -52 21t-22 52q0 32 21.5 54.5t52.5 22.5q32 0 54 -23t22 -55z" />
    <glyph glyph-name="quotedbl" unicode="&#x22;" horiz-adv-x="444" 
d="M116 390l-22 276h103l-21 -276h-60zM268 390l-22 276h103l-21 -276h-60z" />
    <glyph glyph-name="numbersign" unicode="#" horiz-adv-x="554" 
d="M495 215h-105l-34 -215h-73l33 215h-105l-35 -215h-72l33 215h-104l1 72h115l16 105h-103v72h115l31 202h73l-32 -202h106l32 202h73l-31 -202h93l-1 -72h-103l-17 -105h95zM238 392l-16 -105h106l16 105h-106z" />
    <glyph glyph-name="dollar" unicode="$" horiz-adv-x="483" 
d="M376 512q-40 45 -89 49v-161q25 -12 40.5 -19.5t26 -13.5t19.5 -12.5t21 -16.5q32 -25 49 -63t17 -83q0 -47 -18.5 -86t-53.5 -67q-11 -9 -21 -15.5t-21 -11t-25.5 -8.5t-33.5 -8v-92h-85v86q-19 3 -33 5t-26 5.5t-23.5 8t-26.5 11.5q-18 9 -30.5 16.5t-23 16t-20 19
t-21.5 25.5l75 97q32 -44 61 -62.5t67 -20.5v186l-23 12q-28 14 -47.5 25.5t-33.5 23t-24 24t-19 28.5q-21 37 -21 83q0 72 45 120t123 59v76h86v-72q53 -9 88.5 -25.5t69.5 -47.5zM201 557q-47 -16 -47 -56q0 -41 47 -63v119zM287 116q52 21 52 74q0 46 -52 73v-147z" />
    <glyph glyph-name="percent" unicode="%" horiz-adv-x="868" 
d="M702 666l-495 -666h-107l495 666h107zM312 471q0 -95 -35 -145q-21 -29 -53.5 -45t-69.5 -16q-71 0 -112.5 54t-41.5 146q0 96 41.5 150.5t115.5 54.5q73 0 114 -52.5t41 -146.5zM812 204q0 -95 -35 -144q-21 -29 -53.5 -45t-69.5 -16q-71 0 -113 53.5t-42 145.5
q0 97 42 151.5t116 54.5q73 0 114 -53t41 -147zM229 469q0 59 -19 91.5t-53 32.5q-71 0 -71 -133q0 -57 18 -88t50 -31q34 0 54.5 35t20.5 93zM729 202q0 59 -19 91.5t-53 32.5q-71 0 -71 -132q0 -57 18 -88t50 -31q34 0 54.5 34.5t20.5 92.5z" />
    <glyph glyph-name="ampersand" unicode="&#x26;" horiz-adv-x="659" 
d="M600 226l-87 -69l131 -157h-169l-68 81l-30 -20t-21 -13.5t-16 -10t-16 -9.5q-66 -38 -129 -38q-37 0 -70.5 14.5t-59 40t-40.5 58.5t-15 71q0 75 74 139q9 8 17 14t16.5 12.5t19.5 14t26 17.5q-14 21 -23 38t-14.5 33t-8 31.5t-2.5 32.5q0 38 13.5 70t37.5 55.5t57 37
t71 13.5q36 0 68.5 -12.5t57 -34.5t38.5 -50.5t14 -61.5q0 -53 -28 -94.5t-91 -81.5l75 -90l88 69zM276 440q65 38 65 76q0 21 -13.5 34.5t-34.5 13.5q-22 0 -37.5 -16.5t-15.5 -41.5q0 -18 7.5 -31t28.5 -35zM244 276l-42 -29q-30 -20 -42 -35.5t-12 -35.5q0 -23 15.5 -38
t38.5 -15q14 0 35.5 8t39.5 21l44 30z" />
    <glyph glyph-name="quotesingle" unicode="'" horiz-adv-x="222" 
d="M81 390l-22 276h103l-21 -276h-60z" />
    <glyph glyph-name="parenleft" unicode="(" horiz-adv-x="309" 
d="M306 696q-76 -74 -111 -160.5t-35 -198.5q0 -55 8 -102.5t25.5 -91t45.5 -85t67 -83.5l-73 -74q-22 21 -38 37t-29 32.5t-25 35t-27 44.5q-42 72 -61.5 143.5t-19.5 146.5q0 84 23.5 158t74.5 152q13 21 24 36t22 28t24.5 26t31.5 30z" />
    <glyph glyph-name="parenright" unicode=")" horiz-adv-x="309" 
d="M75 770q18 -17 31.5 -30t24.5 -26t21.5 -28t24.5 -36q51 -78 75 -152t24 -158q0 -75 -20 -146.5t-62 -143.5q-15 -26 -27 -44.5t-25 -35t-29 -32.5t-38 -37l-72 74q39 42 66.5 83.5t45 85t25.5 91t8 102.5q0 112 -35 198t-110 161z" />
    <glyph glyph-name="asterisk" unicode="*" horiz-adv-x="265" 
d="M262 583l-75 -37l75 -41l-31 -51l-71 43l3 -80h-61l3 80l-69 -43l-29 51l70 41l-74 39l33 55l69 -43l-4 84h62l-3 -86l71 45z" />
    <glyph glyph-name="plus" unicode="+" 
d="M209 381v190h82v-189h200v-82h-200v-189h-81v189h-202v81h201z" />
    <glyph glyph-name="comma" unicode="," horiz-adv-x="218" 
d="M187 65q0 -38 -5 -67.5t-16 -53.5t-29 -43.5t-45 -37.5l-37 61q23 21 34 38.5t13 37.5h-53v116h138v-51z" />
    <glyph glyph-name="hyphen" unicode="-" horiz-adv-x="287" 
d="M253 164h-220v113h220v-113z" />
    <glyph glyph-name="hyphen" unicode="&#xad;" horiz-adv-x="287" 
d="M253 164h-220v113h220v-113z" />
    <glyph glyph-name="hyphen" unicode="&#xad;" horiz-adv-x="287" 
d="M253 164h-220v113h220v-113z" />
    <glyph glyph-name="period" unicode="." horiz-adv-x="218" 
d="M186 67q-1 -31 -23 -52t-54 -21q-30 0 -51.5 21t-21.5 53t22 54t54 22q31 0 52.5 -22.5t21.5 -54.5z" />
    <glyph glyph-name="slash" unicode="/" horiz-adv-x="664" 
d="M625 666l-494 -666h-107l494 666h107v0z" />
    <glyph glyph-name="zero" unicode="0" horiz-adv-x="589" 
d="M554 341q0 -162 -58 -242q-35 -48 -89 -74.5t-115 -26.5q-59 0 -106 23.5t-80.5 66.5t-51.5 104.5t-18 137.5q0 80 18 143.5t52 108t82.5 68t109.5 23.5q60 0 110 -24.5t83 -70.5q34 -47 48.5 -102.5t14.5 -134.5zM424 338q0 102 -33.5 159t-93.5 57q-63 0 -95 -58.5
t-32 -172.5q0 -58 9 -94.5t29 -65.5q34 -47 84 -47q30 0 54.5 15.5t41.5 44.5t26.5 70t9.5 92z" />
    <glyph glyph-name="one" unicode="1" horiz-adv-x="263" 
d="M212 0h-131v551h-96v115h227v-666z" />
    <glyph glyph-name="two" unicode="2" horiz-adv-x="513" 
d="M490 0h-482q14 17 23.5 29t22 27t30.5 36l48 56q61 71 99.5 119.5t60.5 83t30.5 59t8.5 47.5q0 42 -26.5 69t-68.5 27q-47 0 -69.5 -30t-24.5 -95h-134v14q0 109 59.5 171t165.5 62q54 0 98.5 -15.5t76 -43.5t49 -67.5t17.5 -87.5q0 -47 -17.5 -89.5t-57.5 -96.5
q-12 -15 -27 -34.5t-35 -43.5q-14 -17 -24 -29t-18.5 -22t-17 -19.5t-20.5 -21.5h233v-105z" />
    <glyph glyph-name="three" unicode="3" horiz-adv-x="516" 
d="M380 351q97 -49 97 -156q0 -44 -17 -81t-47.5 -64t-72.5 -42t-92 -15t-91.5 14t-72 40t-49 63t-21.5 83h132q9 -86 99 -86q45 0 71 23.5t26 64.5q0 91 -117 94l-19 1v106q8 -1 13.5 -1h9.5q50 0 77.5 22.5t27.5 62.5q0 35 -24.5 59t-60.5 24q-39 0 -60.5 -19t-30.5 -64
h-127q3 24 6 40.5t7.5 30t11 25t15.5 23.5q27 35 72.5 55t100.5 20q46 0 85.5 -14t68.5 -38.5t45.5 -58t16.5 -72.5q0 -45 -19 -79t-61 -61z" />
    <glyph glyph-name="four" unicode="4" horiz-adv-x="563" 
d="M439 263h91v-107h-91v-156h-128v155h-304v64l313 447h119v-403zM311 473l-2 -4l-6 -8l-4 -6l-6 -8l-113 -161l-3 -5l-4 -5l-5 -8l-3 -5h146v210z" />
    <glyph glyph-name="five" unicode="5" horiz-adv-x="467" 
d="M399 548h-207l-15 -102h10q71 0 119 -17.5t81 -55.5q25 -28 39 -67.5t14 -80.5q0 -50 -19.5 -93t-53 -75t-78.5 -50.5t-97 -18.5q-49 0 -99 14t-97 40l22 134q81 -72 168 -72q25 0 47.5 9t38.5 24t25.5 35.5t9.5 44.5q0 26 -11 48.5t-30.5 39t-45.5 25.5t-57 9
q-30 0 -59 -9t-69 -32l54 368h310v-118z" />
    <glyph glyph-name="six" unicode="6" horiz-adv-x="552" 
d="M411 649l-26 -34l-21 -29l-19 -27l-85 -125q17 3 27 4t25 1q49 0 90 -16t71 -44t47 -66.5t17 -83.5q0 -52 -19 -95t-53.5 -74.5t-82 -49t-104.5 -17.5q-149 0 -220 111q-36 58 -36 122q0 28 5.5 54.5t17 55t30 60t45.5 68.5l147 202h156zM394 225q0 23 -9 43.5
t-24.5 35.5t-36 23.5t-43.5 8.5q-24 0 -45 -9t-37 -24.5t-25.5 -36.5t-9.5 -44q0 -24 9 -44.5t25 -36t36.5 -24.5t44.5 -9t45 9t36.5 24.5t24.5 37t9 46.5z" />
    <glyph glyph-name="seven" unicode="7" horiz-adv-x="430" 
d="M486 666l-376 -666h-144l309 547h-288v119h499v0z" />
    <glyph glyph-name="eight" unicode="8" horiz-adv-x="525" 
d="M393 348q27 -20 45 -37.5t29 -36t15.5 -39t4.5 -45.5q0 -44 -16.5 -80t-46 -62t-71 -40.5t-91.5 -14.5t-92 14.5t-72 40.5t-47 61.5t-17 78.5q0 101 93 160q-83 54 -83 146q0 40 15.5 73t43.5 56.5t67 36.5t87 13q49 0 89 -13t68.5 -37t44.5 -57.5t16 -74.5
q0 -44 -19.5 -78t-62.5 -65zM342 483q0 34 -23.5 57t-57.5 23t-58 -23.5t-24 -57.5q0 -18 6.5 -33t17.5 -26.5t26 -18t32 -6.5q35 0 58 24.5t23 60.5zM349 195q0 38 -26 63.5t-65 25.5q-38 0 -63.5 -25.5t-25.5 -62.5q0 -19 7 -36t19.5 -29.5t29.5 -20t36 -7.5q38 0 63 26.5
t25 65.5z" />
    <glyph glyph-name="nine" unicode="9" horiz-adv-x="523" 
d="M125 0l161 240q-24 -7 -37 -9t-30 -2q-47 0 -87 16t-69 44t-46 66.5t-17 82.5q0 52 19 95.5t53 74.5t81 48.5t103 17.5q57 0 104.5 -17.5t81.5 -49t53 -75.5t19 -97q0 -26 -3 -46.5t-11.5 -42.5t-24.5 -49t-42 -66l-154 -231h-154zM372 447q0 24 -9 45.5t-24 37.5
t-35.5 25t-44.5 9t-44.5 -9t-36.5 -25t-25 -37t-9 -45t9 -45t24.5 -36.5t36.5 -25t44 -9.5t44 9t36.5 25t24.5 36.5t9 44.5z" />
    <glyph glyph-name="colon" unicode=":" horiz-adv-x="218" 
d="M186 305q-1 -31 -23 -52.5t-54 -21.5q-30 0 -51.5 21.5t-21.5 53.5t22 54t54 22q31 0 52.5 -22.5t21.5 -54.5zM186 67q-1 -31 -23 -52t-54 -21q-30 0 -51.5 21t-21.5 53t22 54t54 22q31 0 52.5 -22.5t21.5 -54.5z" />
    <glyph glyph-name="semicolon" unicode=";" horiz-adv-x="218" 
d="M186 305q-1 -31 -23 -52.5t-54 -21.5q-30 0 -51.5 21.5t-21.5 53.5t22 54t54 22q31 0 52.5 -22.5t21.5 -54.5zM187 65q0 -38 -5 -67.5t-16 -53.5t-29 -43.5t-45 -37.5l-37 61q23 21 34 38.5t13 37.5h-53v116h138v-51z" />
    <glyph glyph-name="semicolon" unicode="&#x37e;" horiz-adv-x="218" 
d="M186 305q-1 -31 -23 -52.5t-54 -21.5q-30 0 -51.5 21.5t-21.5 53.5t22 54t54 22q31 0 52.5 -22.5t21.5 -54.5zM187 65q0 -38 -5 -67.5t-16 -53.5t-29 -43.5t-45 -37.5l-37 61q23 21 34 38.5t13 37.5h-53v116h138v-51z" />
    <glyph glyph-name="semicolon" unicode="&#x37e;" horiz-adv-x="218" 
d="M186 305q-1 -31 -23 -52.5t-54 -21.5q-30 0 -51.5 21.5t-21.5 53.5t22 54t54 22q31 0 52.5 -22.5t21.5 -54.5zM187 65q0 -38 -5 -67.5t-16 -53.5t-29 -43.5t-45 -37.5l-37 61q23 21 34 38.5t13 37.5h-53v116h138v-51z" />
    <glyph glyph-name="less" unicode="&#x3c;" 
d="M491 500l-377 -165l377 -152v-89l-483 195v90l483 209v-88z" />
    <glyph glyph-name="equal" unicode="=" 
d="M491 458v-81h-483v81h483zM491 304v-82h-483v82h483z" />
    <glyph glyph-name="greater" unicode="&#x3e;" 
d="M8 183l377 164l-377 152v89l483 -195v-90l-483 -209v89z" />
    <glyph glyph-name="question" unicode="?" horiz-adv-x="489" 
d="M293 190h-128v181q14 -2 21 -2h18q56 0 88 26t32 73q0 41 -28 68t-70 27q-80 0 -88 -97h-130q1 25 3.5 42t6 30.5t8.5 25t13 24.5q26 43 76.5 67.5t111.5 24.5q51 0 93 -15.5t72.5 -44t47.5 -67.5t17 -86q0 -45 -16 -84.5t-45 -67.5q-11 -11 -21 -18.5t-21.5 -13.5
t-26 -11t-34.5 -11v-71zM302 67q0 -32 -22 -54.5t-54 -22.5q-30 0 -51.5 21.5t-21.5 53.5q0 31 21.5 52.5t52.5 21.5t53 -21t22 -51z" />
    <glyph glyph-name="at" unicode="@" horiz-adv-x="683" 
d="M632 132q-17 -20 -29 -34.5t-23 -25t-22 -18.5t-24 -17q-75 -48 -183 -48q-77 0 -142 25.5t-112 71t-73.5 108t-26.5 136.5q0 75 26.5 138.5t74 110t112 73t141.5 26.5q69 0 128 -21.5t102 -59.5t67 -90t24 -114q0 -86 -43.5 -150.5t-121.5 -94.5q-34 -14 -59 -14
q-51 0 -51 52q-39 -48 -99 -48q-32 0 -59 12t-46 33.5t-29.5 51.5t-10.5 66q0 44 14 82.5t39 66.5t58.5 44t72.5 16q78 0 112 -64l11 52h71l-45 -260q-2 -8 -3 -13.5t-1 -8.5v-5q-2 -17 14 -17q14 0 36 15t42 39q23 26 34.5 60t11.5 70q0 53 -20 98t-55 77.5t-83.5 51
t-106.5 18.5q-61 0 -114 -22.5t-92 -61.5t-61 -92.5t-22 -114.5q0 -62 22.5 -114.5t61.5 -91.5t92 -61t115 -22q65 0 119 26q11 6 20.5 11.5t19 12.5t20 16t24.5 23h72zM326 214q44 0 71.5 35.5t27.5 91.5q0 41 -21 64.5t-57 23.5q-22 0 -41 -9.5t-33.5 -26t-22.5 -39
t-8 -48.5q0 -41 23 -66.5t61 -25.5z" />
    <glyph glyph-name="A" unicode="A" horiz-adv-x="684" 
d="M411 666l260 -666h-148l-55 137h-261l-56 -137h-145l269 666h136v0zM342 490l-91 -241h174l-83 241v0z" />
    <glyph glyph-name="B" unicode="B" horiz-adv-x="506" 
d="M160 666h98q54 -2 97 -15q51 -16 81 -58t30 -98q0 -52 -23 -86t-73 -54q61 -17 92.5 -59.5t31.5 -106.5q0 -29 -8 -56t-22.5 -50t-34 -40t-42.5 -26q-22 -9 -50.5 -13t-63.5 -4h-231v666h118zM178 398h38q57 0 82.5 18t25.5 59q0 80 -99 80h-47v-157zM178 113h42
q73 -1 101.5 18.5t28.5 69.5q0 49 -31 69.5t-106 20.5h-35v-178z" />
    <glyph glyph-name="C" unicode="C" horiz-adv-x="541" 
d="M526 475q-44 38 -82.5 55t-85.5 17q-45 0 -83 -15.5t-65 -43.5t-42.5 -67t-15.5 -85q0 -47 15.5 -87t42.5 -69t64.5 -45t82.5 -16q48 0 86 16.5t83 55.5v-158q-27 -13 -47.5 -21t-39.5 -12.5t-39 -6.5t-45 -2q-70 0 -130.5 26t-105 72t-70 108.5t-25.5 135.5
q0 72 25.5 135t70.5 109t105.5 72.5t130.5 26.5q24 0 43.5 -2t38 -6.5t39.5 -12.5t49 -21v-159z" />
    <glyph glyph-name="D" unicode="D" horiz-adv-x="620" 
d="M226 666q51 0 87.5 -2t64.5 -7.5t49.5 -15t42.5 -23.5q65 -44 99.5 -117t34.5 -168q0 -83 -25.5 -148.5t-75.5 -110.5q-25 -23 -48 -37.5t-52 -22.5t-67.5 -11t-94.5 -3h-199v666h184zM182 120h59q59 0 94 9t59 31q30 28 46.5 72.5t16.5 99.5q0 51 -14.5 91.5t-41.5 69.5
q-28 29 -63.5 41t-93.5 12h-62v-426z" />
    <glyph glyph-name="E" unicode="E" horiz-adv-x="440" 
d="M410 545h-232v-150h227v-116h-227v-158h232v-121h-368v666h368v-121z" />
    <glyph glyph-name="F" unicode="F" horiz-adv-x="421" 
d="M409 545h-229v-148h220v-119h-220v-278h-137v666h366v-121z" />
    <glyph glyph-name="G" unicode="G" horiz-adv-x="717" 
d="M566 423q-35 66 -82 97.5t-112 31.5q-42 0 -78.5 -16.5t-63.5 -46t-42 -69.5t-15 -87t15 -87.5t42 -70t63.5 -46.5t78.5 -17q67 0 112.5 35t58.5 96h-168v114h324q0 -33 -1.5 -55.5t-4.5 -41.5t-9 -37.5t-15 -42.5q-17 -45 -46 -80.5t-67 -60.5t-84.5 -38.5t-97.5 -13.5
q-73 0 -137 26.5t-112 73t-75.5 108t-27.5 132.5q0 72 28 136t76 112.5t112 76.5t136 28q94 -1 170.5 -44t124.5 -123z" />
    <glyph glyph-name="H" unicode="H" horiz-adv-x="638" 
d="M595 0h-141v287h-269v-287h-142v666h141v-266h270v266h141v-666z" />
    <glyph glyph-name="I" unicode="I" horiz-adv-x="223" 
d="M180 0h-138v666h138v-666z" />
    <glyph glyph-name="J" unicode="J" horiz-adv-x="416" 
d="M373 200q0 -56 -7.5 -88t-27.5 -58q-23 -32 -60 -48.5t-85 -16.5q-69 0 -118 32.5t-70 93.5l107 85q12 -95 71 -95q31 0 43 20.5t12 73.5v467h135v-466z" />
    <glyph glyph-name="K" unicode="K" horiz-adv-x="602" 
d="M571 666l-260 -323l282 -343h-172l-242 298v-298h-136v666h136v-289l225 289h167v0z" />
    <glyph glyph-name="L" unicode="L" horiz-adv-x="419" 
d="M182 125h210v-125h-349v666h139v-541z" />
    <glyph glyph-name="M" unicode="M" horiz-adv-x="828" 
d="M691 666l122 -666h-141l-71 420l-160 -420h-76l-158 408l-63 -408h-130l97 666h139l154 -405l148 405h139v0z" />
    <glyph glyph-name="N" unicode="N" horiz-adv-x="706" 
d="M663 0h-134l-352 456v-456h-135v666h140l347 -452v452h134v-666z" />
    <glyph glyph-name="O" unicode="O" horiz-adv-x="735" 
d="M715 338q0 -75 -27 -139.5t-75 -112t-113 -74t-141 -26.5q-72 0 -134 26.5t-108.5 73t-73 110t-26.5 136.5t26.5 136.5t73 111t109.5 74.5t135 27q75 0 140 -26t112.5 -72t74.5 -109t27 -136zM574 335q0 45 -16 84t-44 67.5t-66.5 45t-83.5 16.5q-44 0 -82 -16.5t-66 -45
t-44 -67.5t-16 -85t15.5 -84.5t43.5 -67t66 -44.5t83 -16q46 0 84.5 15.5t66.5 44t43.5 67.5t15.5 86z" />
    <glyph glyph-name="P" unicode="P" horiz-adv-x="467" 
d="M232 666q32 0 54.5 -1.5t40 -5t32 -9.5t29.5 -15q43 -26 66 -70t23 -101t-23 -104.5t-64 -75.5q-15 -11 -30.5 -18t-33.5 -11t-40 -6t-51 -2h-18t-18 1l-19 1v-249h-138v666h190zM180 370h47q56 -1 82 20.5t26 68.5q0 50 -25.5 70t-88.5 20h-41v-179z" />
    <glyph glyph-name="Q" unicode="Q" horiz-adv-x="726" 
d="M660 -6l-125 -23l-42 55q-22 -9 -38.5 -15t-32 -9t-32 -4t-38.5 -1q-70 0 -131 26.5t-106.5 72.5t-71.5 108t-26 134t27 135t73.5 109t109.5 72.5t136 26.5q134 0 227 -84q27 -24 48.5 -54.5t36.5 -64t23 -69t8 -70.5q0 -32 -7 -64.5t-19.5 -63t-30 -57.5t-39.5 -48
q-3 -3 -8.5 -8t-13.5 -12zM510 187q29 33 43.5 72t14.5 81q0 45 -16.5 84.5t-45 69t-67 46.5t-82.5 17q-42 0 -79 -17.5t-65.5 -47.5t-45 -69.5t-16.5 -83.5t16.5 -83.5t44.5 -69t66 -47t80 -17.5q17 0 27 2t27 7l-79 102l125 22z" />
    <glyph glyph-name="R" unicode="R" horiz-adv-x="548" 
d="M177 666q50 0 82 -1t54 -3.5t38 -7t34 -12.5q46 -21 71.5 -64.5t25.5 -102.5q0 -81 -37 -130t-115 -69l206 -276h-169l-186 267v-267h-139v666h135zM181 366h20q137 0 137 98q0 49 -29 70t-97 21h-31v-189z" />
    <glyph glyph-name="S" unicode="S" horiz-adv-x="448" 
d="M328 497q-21 32 -42 45.5t-49 13.5q-32 0 -53.5 -21t-21.5 -53q0 -30 18.5 -50.5t62.5 -34.5q34 -12 58.5 -22.5t41.5 -22t29 -24.5t23 -30q14 -23 21 -49t7 -54q0 -46 -16 -84t-44.5 -65t-69 -41.5t-89.5 -14.5q-60 0 -105 18.5t-87 61.5l81 102q31 -33 58.5 -47.5
t57.5 -14.5q35 0 57 21t22 54t-21 55t-73 41q-28 10 -44.5 17t-27.5 12.5t-18.5 11t-17.5 13.5q-29 25 -44.5 61t-15.5 78q0 43 16 80t43.5 64t66 42.5t83.5 15.5q52 0 93 -17t83 -56z" />
    <glyph glyph-name="T" unicode="T" horiz-adv-x="415" 
d="M404 545h-129v-545h-137v545h-129v121h395v-121z" />
    <glyph glyph-name="U" unicode="U" horiz-adv-x="611" 
d="M568 277q0 -42 -3 -74t-10.5 -57.5t-19.5 -45.5t-29 -38q-71 -74 -201 -74q-79 0 -138 29t-91 83q-18 31 -26 69.5t-8 98.5v398h137v-407q0 -146 125 -146q128 0 128 148v405h136v-389z" />
    <glyph glyph-name="V" unicode="V" horiz-adv-x="620" 
d="M613 666l-251 -666h-138l-252 666h149l176 -474l178 474h138v0z" />
    <glyph glyph-name="W" unicode="W" horiz-adv-x="904" 
d="M910 666l-198 -666h-122l-139 402l-135 -402h-117l-193 666h139l121 -419l140 419h94l144 -419l120 419h146v0z" />
    <glyph glyph-name="X" unicode="X" horiz-adv-x="659" 
d="M636 666l-224 -310l247 -356h-165l-167 242l-173 -242h-161l256 353l-221 313h169l135 -197l143 197h161v0z" />
    <glyph glyph-name="Y" unicode="Y" horiz-adv-x="563" 
d="M576 666l-223 -352v-314h-137v314l-222 352h164l132 -211l134 211h152v0z" />
    <glyph glyph-name="Z" unicode="Z" horiz-adv-x="536" 
d="M547 666l-331 -546h313v-120h-540l343 549h-295v117h510v0z" />
    <glyph glyph-name="bracketleft" unicode="[" horiz-adv-x="320" 
d="M298 583h-112v-669h112v-83h-212v835h212v-83z" />
    <glyph glyph-name="backslash" unicode="\" horiz-adv-x="664" 
d="M130 666l495 -666h-107l-495 666h107z" />
    <glyph glyph-name="bracketright" unicode="]" horiz-adv-x="320" 
d="M233 -170h-212v83h113v669h-113v84h212v-836z" />
    <glyph glyph-name="asciicircum" unicode="^" 
d="M11 373l192 293h93l193 -293h-90l-150 220l-148 -220h-90z" />
    <glyph glyph-name="underscore" unicode="_" 
d="M500 -167h-500v96h500v-96z" />
    <glyph glyph-name="grave" unicode="`" horiz-adv-x="165" 
d="M101 671l61 -154l-80 -9l-79 163h98z" />
    <glyph glyph-name="a" unicode="a" horiz-adv-x="529" 
d="M499 0h-128v54q-34 -32 -68 -46t-77 -14q-45 0 -84 17t-67.5 47t-44.5 70.5t-16 88.5t16 90t44.5 73t67 49t82.5 18q41 0 74.5 -15t72.5 -50v58h128v-440zM373 220q0 24 -8.5 44.5t-23.5 35.5t-36 23.5t-45 8.5q-48 0 -79.5 -32.5t-31.5 -82.5t31 -81.5t79 -31.5
q51 0 82.5 31.5t31.5 84.5z" />
    <glyph glyph-name="b" unicode="b" horiz-adv-x="527" 
d="M164 383q33 32 64.5 46.5t72.5 14.5q45 0 83.5 -17.5t67 -48.5t44.5 -73.5t16 -91.5t-15.5 -90t-43 -71t-65.5 -46.5t-84 -16.5q-42 0 -74 13t-66 45v-47h-128v718h128v-335zM375 217q0 24 -8.5 44.5t-22.5 35.5t-34 24t-42 9q-24 0 -44 -8.5t-35 -24t-23.5 -36
t-8.5 -44.5q0 -50 30 -82t77 -32q49 0 80 31.5t31 82.5z" />
    <glyph glyph-name="c" unicode="c" horiz-adv-x="353" 
d="M347 294q-30 18 -52.5 26t-45.5 8q-22 0 -41 -8.5t-33.5 -23.5t-22.5 -35.5t-8 -43.5q0 -24 8.5 -44.5t23 -35.5t34 -23.5t42.5 -8.5q26 0 44.5 6t50.5 26v-127q-17 -7 -30 -11t-25 -6.5t-24.5 -3.5t-28.5 -1q-50 0 -91.5 16.5t-71.5 46.5t-46.5 71.5t-16.5 90.5t17 91
t47 73t71 48.5t89 17.5q15 0 27 -1t24 -4t26 -8t33 -12v-124z" />
    <glyph glyph-name="d" unicode="d" horiz-adv-x="524" 
d="M494 0h-129v39q-20 -15 -35.5 -24.5t-30.5 -15.5t-32 -8t-39 -2q-45 0 -84 17.5t-67.5 47.5t-45 71t-16.5 89t16 89t44.5 72t66.5 48.5t82 17.5q22 0 39.5 -2.5t33.5 -8.5t31.5 -17t35.5 -28v333h130v-718zM375 215q0 24 -8.5 45t-23.5 36.5t-35.5 24t-44.5 8.5
q-49 0 -80.5 -32t-31.5 -82q0 -25 8.5 -46.5t23 -37t35 -24t44.5 -8.5q49 0 81 32.5t32 83.5z" />
    <glyph glyph-name="e" unicode="e" horiz-adv-x="484" 
d="M146 190q8 -48 36 -73t73 -25q35 0 60 15t51 52l93 -59q-38 -60 -86.5 -87.5t-117.5 -27.5q-53 0 -96.5 17t-74.5 48.5t-48.5 75.5t-17.5 97q0 51 16 93t45.5 72.5t70 47.5t88.5 17q110 0 169 -67.5t61 -195.5h-322zM331 277q-22 74 -92 74q-71 0 -93 -74h185z" />
    <glyph glyph-name="f" unicode="f" horiz-adv-x="283" 
d="M273 591q-15 11 -25 15.5t-22 4.5q-23 0 -33 -16t-10 -53v-102h85v-109h-84v-331h-135v331h-42v109h41v104q0 28 0.5 47.5t3 34t6.5 26t10 24.5q15 32 46.5 49.5t74.5 17.5q24 0 40 -3.5t44 -13.5v-135z" />
    <glyph glyph-name="g" unicode="g" horiz-adv-x="516" 
d="M486 3q0 -43 -4 -69t-15 -48q-25 -51 -79 -78t-132 -27q-63 0 -112 16t-78 46q-11 12 -18.5 23t-13 23.5t-8.5 28.5t-5 37h146q14 -68 88 -68q53 0 80 31t27 90v50q-31 -33 -62 -46.5t-75 -13.5q-47 0 -86.5 16.5t-68 46t-44 70.5t-15.5 91q0 51 15 92.5t42 71.5
t64.5 46.5t83.5 16.5q45 0 79.5 -13.5t66.5 -45.5v50h124v-437zM368 228q0 24 -8.5 44t-23.5 35t-35.5 23.5t-44.5 8.5q-47 0 -77 -32.5t-30 -82.5t30.5 -81.5t78.5 -31.5q50 0 80 32.5t30 84.5z" />
    <glyph glyph-name="h" unicode="h" horiz-adv-x="488" 
d="M161 384q36 30 68.5 44t69.5 14q45 0 82.5 -21.5t55.5 -58.5q6 -13 10 -24t6.5 -24t3 -30t0.5 -41v-243h-133v224q0 103 -76 103q-38 0 -62.5 -27.5t-24.5 -69.5v-230h-131v718h131v-334z" />
    <glyph glyph-name="i" unicode="i" horiz-adv-x="193" 
d="M163 0h-133v440h133v-440zM175 601q-1 -31 -23.5 -52.5t-54.5 -21.5t-54.5 21.5t-22.5 52.5q0 34 23 57.5t55 23.5t54.5 -23.5t22.5 -57.5z" />
    <glyph glyph-name="j" unicode="j" horiz-adv-x="187" 
d="M157 -200h-127v640h127v-640zM174 605q0 -33 -22.5 -56t-54.5 -23t-55 23t-23 55t23 55t56 23q32 0 54 -22.5t22 -54.5z" />
    <glyph glyph-name="k" unicode="k" horiz-adv-x="479" 
d="M470 440l-190 -210l201 -230h-164l-159 190v-190h-128v718h128v-447l149 169h163v0z" />
    <glyph glyph-name="l" unicode="l" horiz-adv-x="186" 
d="M156 0h-126v718h126v-718z" />
    <glyph glyph-name="m" unicode="m" horiz-adv-x="726" 
d="M158 387q35 34 61.5 47t61.5 13q40 0 70 -17t56 -53q29 38 60 54.5t72 16.5q40 0 75 -18t55 -49q16 -23 21.5 -52.5t5.5 -82.5v-246h-130v242q0 89 -68 89q-37 0 -54.5 -24.5t-17.5 -78.5v-228h-130v245q0 82 -65 82q-38 0 -55.5 -25.5t-17.5 -79.5v-222h-128v440h128
v-53z" />
    <glyph glyph-name="n" unicode="n" horiz-adv-x="489" 
d="M163 384q29 33 63 48.5t78 15.5q48 0 85 -21.5t52 -56.5q9 -22 13.5 -51t4.5 -70v-249h-132v243q-1 93 -74 93q-43 0 -66.5 -25.5t-23.5 -72.5v-238h-133v440h133v-56z" />
    <glyph glyph-name="o" unicode="o" horiz-adv-x="511" 
d="M492 219q0 -51 -17.5 -93t-49 -72t-75.5 -47t-96 -17q-51 0 -94.5 17t-75 47.5t-49 72t-17.5 91.5t18 92.5t50 73.5t76 48.5t96 17.5q50 0 92.5 -17.5t74 -48.5t49.5 -73.5t18 -91.5zM369 220q-2 50 -33.5 80.5t-79.5 30.5q-24 0 -44.5 -8.5t-35 -23.5t-23 -36t-8.5 -46
q0 -24 8.5 -44.5t24 -35.5t36 -23.5t44.5 -8.5q23 0 43.5 8.5t35.5 23.5t23.5 35.5t8.5 43.5v4z" />
    <glyph glyph-name="p" unicode="p" horiz-adv-x="522" 
d="M155 390q19 18 35 30t32 18.5t34.5 9.5t42.5 3q46 0 84.5 -17t66.5 -47.5t44 -72.5t16 -91q0 -50 -15.5 -92t-42.5 -72t-64.5 -47t-81.5 -17q-24 0 -42.5 2.5t-35 9t-34 18t-38.5 29.5v-252h-126v638h125v-50zM369 223q0 48 -30 80t-76 32t-76 -32t-30 -81
q0 -48 29.5 -79t75.5 -31q48 0 77.5 31t29.5 80z" />
    <glyph glyph-name="q" unicode="q" horiz-adv-x="515" 
d="M485 440v-638h-126v260q-18 -19 -33 -31t-31 -19t-35 -9.5t-44 -2.5q-44 0 -81 17t-65 47t-43.5 70.5t-15.5 88.5q0 49 15.5 91t43 72.5t65 47.5t81.5 17q25 0 44.5 -3t35.5 -10t31 -20t33 -32v54h125zM146 225q0 -50 29.5 -81.5t77.5 -31.5q47 0 77.5 32t30.5 81
t-31 80.5t-79 31.5q-46 0 -75.5 -31.5t-29.5 -80.5z" />
    <glyph glyph-name="r" unicode="r" horiz-adv-x="300" 
d="M306 304q-17 9 -26.5 12t-22.5 3q-47 0 -72.5 -30t-25.5 -84v-205h-129v440h129v-66q17 18 33 31t33.5 22t37 14.5t43.5 8.5v-146z" />
    <glyph glyph-name="s" unicode="s" horiz-adv-x="351" 
d="M230 319q-11 22 -21.5 30.5t-26.5 8.5t-26 -10.5t-10 -27.5t13.5 -28t48.5 -22q52 -16 79 -32.5t41 -42.5q14 -28 14 -60t-12.5 -59t-35 -46.5t-53.5 -30t-68 -10.5q-66 0 -104.5 26t-63.5 87l108 36q13 -26 27.5 -38t35.5 -12q18 0 30 10t12 26q0 9 -3 15t-11 12
t-22.5 11.5t-37.5 12.5q-66 20 -96 52t-30 84q0 31 12.5 57t34.5 45t52.5 30t65.5 11q108 0 150 -101z" />
    <glyph glyph-name="t" unicode="t" horiz-adv-x="255" 
d="M181 440h78v-105h-77v-335h-132v334h-44v106h43v131h132v-131z" />
    <glyph glyph-name="u" unicode="u" horiz-adv-x="482" 
d="M452 207q0 -52 -7 -84t-24 -57q-23 -35 -71 -55.5t-107 -20.5q-61 0 -109.5 22t-74.5 61q-9 13 -14.5 25.5t-8.5 28t-4.5 35t-1.5 45.5v233h129v-220q0 -60 19 -86.5t63 -26.5q45 0 63.5 26t18.5 89v218h129v-233z" />
    <glyph glyph-name="v" unicode="v" horiz-adv-x="506" 
d="M500 440l-201 -440h-111l-199 440h143l114 -256l115 256h139v0z" />
    <glyph glyph-name="w" unicode="w" horiz-adv-x="725" 
d="M718 440l-156 -440h-128l-75 226l-78 -226h-123l-152 440h132l86 -265l94 265h84l94 -269l89 269h133v0z" />
    <glyph glyph-name="x" unicode="x" horiz-adv-x="546" 
d="M527 440l-174 -213l186 -227h-165l-105 125l-106 -125h-156l184 221l-182 219h169l97 -119l92 119h160v0z" />
    <glyph glyph-name="y" unicode="y" horiz-adv-x="494" 
d="M499 440l-297 -641h-132l113 238l-188 403h146l110 -256l119 256h129v0z" />
    <glyph glyph-name="z" unicode="z" horiz-adv-x="409" 
d="M420 440l-213 -329h189v-111h-408l212 329h-181v111h401v0z" />
    <glyph glyph-name="braceleft" unicode="{" horiz-adv-x="320" 
d="M135 248q35 -21 48 -47.5t13 -75.5v-139v-33q0 -19 4 -31t13.5 -19t25.5 -10t41 -3h14v-74h-15q-8 -1 -14 -1h-11q-82 0 -116.5 33.5t-34.5 111.5v159q0 44 -12 64t-43 27v75q31 7 43 27t12 65v164q0 77 35 109t118 32h16t22 -1v-73l-12 -1q-51 0 -68.5 -13t-17.5 -50
v-32v-142q0 -25 -3 -43t-9.5 -32t-18.5 -25t-30 -22z" />
    <glyph glyph-name="bar" unicode="|" 
d="M289 666v-841h-79v841h79z" />
    <glyph glyph-name="braceright" unicode="}" horiz-adv-x="320" 
d="M184 248q-35 21 -48 47.5t-13 75.5v140v33q0 19 -4 31t-13.5 19t-25.5 10t-40 3h-15v74q16 1 23.5 1h15.5q83 0 117.5 -33t34.5 -112v-159q0 -45 12 -65t43 -27v-74q-32 -8 -43.5 -28t-11.5 -65v-164q0 -76 -35 -108t-118 -32h-16t-22 1v73l12 1q25 0 42 3t26.5 10
t13.5 19t4 31v32v142q0 25 3 43t9.5 31.5t18.5 24.5t30 22z" />
    <glyph glyph-name="asciitilde" unicode="~" horiz-adv-x="499" 
d="M497 632q-19 -32 -35.5 -53.5t-32.5 -35.5t-33 -20t-36 -6q-11 0 -19 1t-19.5 4.5t-29 11t-46.5 19.5l-44 19q-23 10 -35 13.5t-23 3.5q-27 0 -47.5 -19t-48.5 -69l-46 50q37 64 68.5 91t70.5 27q11 0 22 -1.5t25 -6t32.5 -12t44.5 -19.5q24 -11 39.5 -17t25 -10t16 -5
t12.5 -1q25 0 45.5 19t46.5 65z" />
    <glyph glyph-name="nonbreakingspace" unicode="&#xa0;" horiz-adv-x="226" 
 />
    <glyph glyph-name="exclamdown" unicode="&#xa1;" horiz-adv-x="190" 
d="M30 -219v471h130v-471h-130zM168 381q0 -32 -22 -55t-54 -23q-31 0 -52.5 23t-21.5 55q0 30 21.5 51.5t52.5 21.5q32 0 54 -21.5t22 -51.5z" />
    <glyph glyph-name="cent" unicode="&#xa2;" horiz-adv-x="353" 
d="M280 559q17 -3 30.5 -7t36.5 -14v-124q-21 13 -35.5 19t-31.5 11v-216q18 4 31 9.5t36 19.5v-127q-23 -9 -35.5 -13t-29.5 -6h-1v-87h-86v88q-42 7 -75.5 26.5t-57 48.5t-36.5 66t-13 80t13 80.5t36.5 67t57 50t74.5 28.5v74h86v-74zM194 431q-24 -15 -37 -39.5
t-13 -54.5q0 -60 50 -95v189z" />
    <glyph glyph-name="sterling" unicode="&#xa3;" horiz-adv-x="529" 
d="M349 493q-13 77 -78 77q-32 0 -52 -20t-20 -53q0 -20 5 -40t20 -55l7 -18h127v-113h-113q-1 -27 -4.5 -48.5t-13.5 -52.5q58 -64 99 -64q27 0 42 20t15 58v11h119q2 -11 2 -16.5v-12.5q0 -39 -11.5 -71.5t-32.5 -56t-50.5 -36t-64.5 -12.5q-40 0 -77.5 17t-87.5 60l-4 -6
l-17 -25q-5 -9 -11 -16t-17 -20h-124v41q33 35 53.5 69.5t34.5 76.5q13 40 13 71v13h-102v113h88q-9 23 -15 39.5t-9 30.5t-4 27.5t-1 30.5q0 36 14.5 66.5t40 52.5t61 34.5t78.5 12.5q46 0 85 -13.5t68 -38t46 -58.5t20 -75h-129z" />
    <glyph glyph-name="currency" unicode="&#xa4;" horiz-adv-x="666" 
d="M133 230q-46 65 -46 139q0 39 11 71.5t36 67.5l-101 101l58 58l101 -101q35 25 68.5 36t72.5 11t72 -10.5t68 -34.5l99 98l57 -58l-98 -98q26 -35 37 -68.5t11 -73.5q0 -38 -10.5 -70.5t-35.5 -67.5l99 -99l-57 -58l-99 99q-66 -48 -143 -48q-38 0 -71 11t-71 37
l-100 -99l-57 58zM334 519q-31 0 -58.5 -12t-47.5 -32t-32 -47.5t-12 -58.5t11.5 -58.5t32 -48t47.5 -32.5t58 -12t58 12t47 32.5t32 48t12 58.5t-11.5 58t-32 47.5t-47.5 32.5t-57 12z" />
    <glyph glyph-name="yen" unicode="&#xa5;" horiz-adv-x="520" 
d="M492 384v-64h-145l-32 -57h177v-64h-177v-199h-109v199h-175v64h173l-31 56h-143v65h110l-147 282h122l146 -310l146 310h120l-148 -282h113z" />
    <glyph glyph-name="section" unicode="&#xa7;" horiz-adv-x="515" 
d="M352 509q-6 92 -93 92q-37 0 -59.5 -18.5t-22.5 -48.5q0 -14 3.5 -24.5t14 -20t28.5 -21t48 -26.5q40 -21 70 -37t51.5 -29t37 -24t26.5 -21q41 -39 41 -97q0 -46 -26.5 -81.5t-72.5 -52.5q29 -26 40.5 -49.5t11.5 -55.5q0 -35 -14 -64t-39 -49.5t-60.5 -32t-77.5 -11.5
q-92 0 -145 47.5t-53 129.5v5h96q9 -99 101 -99q40 0 64 20t24 53q0 27 -25 51.5t-85 54.5l-63 31q-33 17 -56.5 30.5t-40 26t-27 25t-17.5 27.5q-8 14 -11.5 30.5t-3.5 33.5q0 48 26 82.5t74 51.5q-23 23 -33 45t-10 51q0 33 13.5 60t38.5 46.5t58.5 30.5t74.5 11
q86 0 136.5 -46.5t52.5 -126.5h-96zM171 388q-61 -20 -61 -74q0 -14 6 -26t22.5 -25.5t46 -31t76.5 -42.5q15 -8 25.5 -13.5t16.5 -8.5q18 -12 27 -16q2 -1 4 -1.5t6 -2.5q29 9 45.5 28.5t16.5 43.5q0 14 -7 27.5t-23.5 28t-43.5 31t-66 36.5l-48 24l-32 18z" />
    <glyph glyph-name="dieresis" unicode="&#xa8;" horiz-adv-x="324" 
d="M321 589q0 -27 -18.5 -45.5t-44.5 -18.5t-44.5 17.5t-18.5 43.5q0 29 19 48.5t46 19.5q26 0 43.5 -19t17.5 -46zM145 588q0 -27 -18 -45.5t-44 -18.5t-45 18.5t-19 44.5q0 28 18.5 47.5t44.5 19.5t44.5 -19.5t18.5 -46.5z" />
    <glyph glyph-name="copyright" unicode="&#xa9;" horiz-adv-x="772" 
d="M386 681q72 0 135.5 -27.5t111 -74.5t74.5 -110.5t27 -135.5t-27.5 -135t-74.5 -110.5t-110.5 -74.5t-135.5 -27t-136 27t-111 74.5t-74.5 110.5t-27.5 135t27.5 135.5t74.5 110.5t111 74.5t136 27.5zM385 623q-60 0 -112 -23t-91 -62t-61.5 -92t-22.5 -113t22.5 -113
t61.5 -92t91 -62t112 -23q59 0 111 23t90.5 62t61 92t22.5 113t-22.5 113t-61 92t-90.5 62t-111 23zM577 296q-6 -77 -56 -122t-129 -45q-44 0 -80.5 15t-62.5 42.5t-40 66t-14 85.5q0 46 14.5 84.5t41 66t63.5 43t81 15.5q36 0 67.5 -11t55 -30t38 -45.5t17.5 -57.5h-76
q-8 38 -35 59t-69 21q-55 0 -87.5 -39.5t-32.5 -105.5q0 -67 32.5 -106t87.5 -39q46 0 73.5 26.5t33.5 76.5h77z" />
    <glyph glyph-name="ordfeminine" unicode="&#xaa;" horiz-adv-x="361" 
d="M246 383q-4 9 -5 15l-1 7l-2 9q-27 -23 -46.5 -31t-49.5 -8q-51 0 -78.5 23t-27.5 65t30.5 63.5t97.5 28.5q26 3 41 5t22.5 5t9 8.5t1.5 14.5q0 44 -58 44q-30 0 -44 -11.5t-19 -40.5h-67q8 101 133 101q66 0 95.5 -23.5t29.5 -74.5v-14v-37q-1 -6 -1 -15v-22v-28
q0 -18 0.5 -30.5t2 -21.5t3.5 -16.5t6 -15.5h-73zM336 276h-299v47h299v-47zM238 525q-13 -7 -34 -10l-29 -3q-35 -5 -50.5 -15.5t-15.5 -30.5t13.5 -31.5t37.5 -11.5q78 0 78 83v19z" />
    <glyph glyph-name="guillemotleft" unicode="&#xab;" horiz-adv-x="564" 
d="M561 399l-150 -155l116 -186l-94 -61l-163 263l206 212zM294 399l-149 -155l116 -186l-95 -61l-163 263l206 212z" />
    <glyph glyph-name="logicalnot" unicode="&#xac;" 
d="M418 199h-409v73h483v-272h-74v199z" />
    <glyph glyph-name="macron" unicode="&#xaf;" horiz-adv-x="0" 
 />
    <glyph glyph-name="macron" unicode="&#x2c9;" horiz-adv-x="0" 
 />
    <glyph glyph-name="macron" unicode="&#x2c9;" horiz-adv-x="0" 
 />
    <glyph glyph-name="degree" unicode="&#xb0;" 
d="M250 681q33 0 61.5 -12t49.5 -32.5t33.5 -48.5t12.5 -59q0 -32 -12.5 -59.5t-33.5 -48t-49.5 -32.5t-61.5 -12t-61.5 12t-50 32.5t-34 48t-12.5 59.5q0 31 12.5 59t34 48.5t50 32.5t61.5 12zM249 621q-19 0 -36 -7t-29 -19.5t-19 -29.5t-7 -36t7 -36t19.5 -29.5t29 -19.5
t35.5 -7t36 7t29.5 19.5t19.5 29.5t7 36t-7 36t-19.5 29.5t-29.5 19.5t-36 7z" />
    <glyph glyph-name="plusminus" unicode="&#xb1;" 
d="M209 440v189h82v-189h200v-81h-200v-180h-81v179h-202v82h201zM491 136v-82h-483v82h483z" />
    <glyph glyph-name="acute" unicode="&#xb4;" horiz-adv-x="165" 
d="M162 671l-80 -163l-79 9l61 154h98v0z" />
    <glyph glyph-name="mu" unicode="&#xb5;" 
d="M37 485h99v-265q0 -74 28.5 -112t83.5 -38q53 0 83 41.5t30 113.5v260h100v-485h-99v68q-23 -45 -49 -63t-66 -18q-38 0 -63 15.5t-48 53.5v-226h-99v655z" />
    <glyph glyph-name="mu" unicode="&#x3bc;" 
d="M37 485h99v-265q0 -74 28.5 -112t83.5 -38q53 0 83 41.5t30 113.5v260h100v-485h-99v68q-23 -45 -49 -63t-66 -18q-38 0 -63 15.5t-48 53.5v-226h-99v655z" />
    <glyph glyph-name="mu" unicode="&#x3bc;" 
d="M37 485h99v-265q0 -74 28.5 -112t83.5 -38q53 0 83 41.5t30 113.5v260h100v-485h-99v68q-23 -45 -49 -63t-66 -18q-38 0 -63 15.5t-48 53.5v-226h-99v655z" />
    <glyph glyph-name="paragraph" unicode="&#xb6;" horiz-adv-x="588" 
d="M249 320q-5 -1 -8.5 -1h-5.5q-40 0 -73 12.5t-57 35t-37 54.5t-13 70q0 58 29.5 101.5t80.5 59.5q24 8 54.5 12t62.5 4h239v-49h-48v-712h-65v711h-92v-711h-67v413z" />
    <glyph glyph-name="periodcentered" unicode="&#xb7;" horiz-adv-x="218" 
d="M187 313q-1 -32 -23 -53.5t-54 -21.5q-30 0 -51.5 22t-21.5 54q0 31 22 53.5t54 22.5q31 0 52.5 -22.5t21.5 -54.5z" />
    <glyph glyph-name="periodcentered" unicode="&#x2219;" horiz-adv-x="218" 
d="M187 313q-1 -32 -23 -53.5t-54 -21.5q-30 0 -51.5 22t-21.5 54q0 31 22 53.5t54 22.5q31 0 52.5 -22.5t21.5 -54.5z" />
    <glyph glyph-name="periodcentered" unicode="&#x2219;" horiz-adv-x="218" 
d="M187 313q-1 -32 -23 -53.5t-54 -21.5q-30 0 -51.5 22t-21.5 54q0 31 22 53.5t54 22.5q31 0 52.5 -22.5t21.5 -54.5z" />
    <glyph glyph-name="cedilla" unicode="&#xb8;" horiz-adv-x="0" 
 />
    <glyph glyph-name="ordmasculine" unicode="&#xba;" horiz-adv-x="378" 
d="M190 681q67 0 108 -42t41 -111q0 -35 -11 -63t-30.5 -48t-47 -31t-61.5 -11t-62 11t-47.5 31t-30.5 48t-11 63q0 34 11 62.5t31 48.5t48 31t62 11zM343 276h-300v47h300v-47zM188 628q-36 0 -57 -26.5t-21 -73.5t20.5 -73t58.5 -26q37 0 57.5 26t20.5 73t-21 73.5
t-58 26.5z" />
    <glyph glyph-name="guillemotright" unicode="&#xbb;" horiz-adv-x="564" 
d="M88 472l206 -212l-163 -263l-95 61l116 186l-149 155l85 73v0zM355 472l206 -212l-164 -263l-94 61l116 186l-149 155l85 73v0z" />
    <glyph glyph-name="questiondown" unicode="&#xbf;" horiz-adv-x="489" 
d="M293 198q20 -6 34.5 -11t26 -11t21.5 -13.5t21 -17.5q29 -29 45 -67.5t16 -83.5q0 -47 -17 -86t-47.5 -67.5t-72.5 -44t-93 -15.5q-61 0 -112 24.5t-76 66.5q-8 14 -13.5 25.5t-9 25t-5.5 30.5t-3 41h130q8 -97 88 -97q42 0 70 27.5t28 68.5q0 45 -32 71.5t-88 26.5
q-11 0 -18.5 -0.5t-21.5 -2.5v181h129v-71zM302 393q0 -30 -22 -51.5t-53 -21.5t-52.5 22t-21.5 52q0 32 21.5 54.5t51.5 22.5q32 0 54 -23t22 -55z" />
    <glyph glyph-name="Agrave" unicode="&#xc0;" horiz-adv-x="678" 
d="M411 666l260 -666h-148l-55 137h-261l-56 -137h-145l269 666h136v0zM342 490l-91 -241h174l-83 241v0zM363 896l61 -154l-80 -9l-79 163h98z" />
    <glyph glyph-name="Aacute" unicode="&#xc1;" horiz-adv-x="678" 
d="M411 666l260 -666h-148l-55 137h-261l-56 -137h-145l269 666h136v0zM342 490l-91 -241h174l-83 241v0zM421 896l-80 -163l-79 9l61 154h98v0z" />
    <glyph glyph-name="Acircumflex" unicode="&#xc2;" horiz-adv-x="678" 
d="M411 666l260 -666h-148l-55 137h-261l-56 -137h-145l269 666h136v0zM342 490l-91 -241h174l-83 241v0zM426 736l-86 79l-87 -82l-52 47l135 137l143 -131z" />
    <glyph glyph-name="Atilde" unicode="&#xc3;" horiz-adv-x="678" 
d="M411 666l260 -666h-148l-55 137h-261l-56 -137h-145l269 666h136v0zM342 490l-91 -241h174l-83 241v0zM507 804q-19 -36 -44.5 -52.5t-61.5 -16.5q-15 0 -28 4.5t-33 15.5q-18 10 -28.5 14t-19.5 4q-15 0 -23.5 -8t-19.5 -32l-55 53q23 40 44 55t56 15q14 0 29 -5t39 -17
l23 -11q16 -8 25 -8q12 0 21.5 9.5t21.5 34.5z" />
    <glyph glyph-name="Adieresis" unicode="&#xc4;" horiz-adv-x="678" 
d="M411 666l260 -666h-148l-55 137h-261l-56 -137h-145l269 666h136v0zM342 490l-91 -241h174l-83 241v0zM495 798q0 -27 -18.5 -45.5t-44.5 -18.5t-44.5 17.5t-18.5 43.5q0 29 19 48.5t46 19.5q26 0 43.5 -19t17.5 -46zM319 797q0 -27 -18 -45.5t-44 -18.5t-45 18.5
t-19 44.5q0 28 18.5 47.5t44.5 19.5t44.5 -19.5t18.5 -46.5z" />
    <glyph glyph-name="Aring" unicode="&#xc5;" horiz-adv-x="678" 
d="M411 666l260 -666h-148l-55 137h-261l-56 -137h-145l269 666h136v0zM342 490l-91 -241h174l-83 241v0zM431 825q0 -19 -7.5 -36t-20 -29.5t-29.5 -19.5t-36 -7t-36 7t-29.5 19.5t-19.5 29t-7 35.5q0 20 7 37.5t19.5 30t29.5 20t36 7.5t36 -7.5t29.5 -20t20 -30t7.5 -36.5
zM380 823q0 17 -12 29.5t-29 12.5t-28 -12.5t-11 -30.5q0 -17 11.5 -28t28.5 -11t28.5 11.5t11.5 28.5z" />
    <glyph glyph-name="AE" unicode="&#xc6;" horiz-adv-x="842" 
d="M657 544h-238l58 -148h238l45 -115h-237l62 -159h238l48 -122h-385l-55 136h-261l-55 -136h-144l265 666h374zM303 494l-90 -246h175l-85 246v0z" />
    <glyph glyph-name="Ccedilla" unicode="&#xc7;" horiz-adv-x="541" 
d="M526 475q-44 38 -82.5 55t-85.5 17q-45 0 -83 -15.5t-65 -43.5t-42.5 -67t-15.5 -85q0 -47 15.5 -87t42.5 -69t64.5 -45t82.5 -16q48 0 86 16.5t83 55.5v-158q-27 -13 -47.5 -21t-39.5 -12.5t-39 -6.5t-45 -2q-70 0 -130.5 26t-105 72t-70 108.5t-25.5 135.5
q0 72 25.5 135t70.5 109t105.5 72.5t130.5 26.5q24 0 43.5 -2t38 -6.5t39.5 -12.5t49 -21v-159zM283 -219l-70 48l104 132l88 -61z" />
    <glyph glyph-name="Egrave" unicode="&#xc8;" horiz-adv-x="432" 
d="M410 545h-232v-150h227v-116h-227v-158h232v-121h-368v666h368v-121zM242 896l61 -154l-80 -9l-79 163h98z" />
    <glyph glyph-name="Eacute" unicode="&#xc9;" horiz-adv-x="432" 
d="M410 545h-232v-150h227v-116h-227v-158h232v-121h-368v666h368v-121zM324 896l-80 -163l-79 9l61 154h98v0z" />
    <glyph glyph-name="Ecircumflex" unicode="&#xca;" horiz-adv-x="432" 
d="M410 545h-232v-150h227v-116h-227v-158h232v-121h-368v666h368v-121zM309 736l-86 79l-87 -82l-52 47l135 137l143 -131z" />
    <glyph glyph-name="Edieresis" unicode="&#xcb;" horiz-adv-x="432" 
d="M410 545h-232v-150h227v-116h-227v-158h232v-121h-368v666h368v-121zM379 798q0 -27 -18.5 -45.5t-44.5 -18.5t-44.5 17.5t-18.5 43.5q0 29 19 48.5t46 19.5q26 0 43.5 -19t17.5 -46zM203 797q0 -27 -18 -45.5t-44 -18.5t-45 18.5t-19 44.5q0 28 18.5 47.5t44.5 19.5
t44.5 -19.5t18.5 -46.5z" />
    <glyph glyph-name="Igrave" unicode="&#xcc;" horiz-adv-x="223" 
d="M180 0h-138v666h138v-666zM127 896l61 -154l-80 -9l-79 163h98z" />
    <glyph glyph-name="Iacute" unicode="&#xcd;" horiz-adv-x="223" 
d="M180 0h-138v666h138v-666zM193 896l-80 -163l-79 9l61 154h98v0z" />
    <glyph glyph-name="Icircumflex" unicode="&#xce;" horiz-adv-x="223" 
d="M180 0h-138v666h138v-666zM200 736l-86 79l-87 -82l-52 47l135 137l143 -131z" />
    <glyph glyph-name="Idieresis" unicode="&#xcf;" horiz-adv-x="223" 
d="M180 0h-138v666h138v-666zM265 798q0 -27 -18.5 -45.5t-44.5 -18.5t-44.5 17.5t-18.5 43.5q0 29 19 48.5t46 19.5q26 0 43.5 -19t17.5 -46zM89 797q0 -27 -18 -45.5t-44 -18.5t-45 18.5t-19 44.5q0 28 18.5 47.5t44.5 19.5t44.5 -19.5t18.5 -46.5z" />
    <glyph glyph-name="Ntilde" unicode="&#xd1;" horiz-adv-x="706" 
d="M663 0h-134l-352 456v-456h-135v666h140l347 -452v452h134v-666zM517 804q-19 -36 -44.5 -52.5t-61.5 -16.5q-15 0 -28 4.5t-33 15.5q-18 10 -28.5 14t-19.5 4q-15 0 -23.5 -8t-19.5 -32l-55 53q23 40 44 55t56 15q14 0 29 -5t39 -17l23 -11q16 -8 25 -8q12 0 21.5 9.5
t21.5 34.5z" />
    <glyph glyph-name="Ograve" unicode="&#xd2;" horiz-adv-x="735" 
d="M715 338q0 -75 -27 -139.5t-75 -112t-113 -74t-141 -26.5q-72 0 -134 26.5t-108.5 73t-73 110t-26.5 136.5t26.5 136.5t73 111t109.5 74.5t135 27q75 0 140 -26t112.5 -72t74.5 -109t27 -136zM574 335q0 45 -16 84t-44 67.5t-66.5 45t-83.5 16.5q-44 0 -82 -16.5t-66 -45
t-44 -67.5t-16 -85t15.5 -84.5t43.5 -67t66 -44.5t83 -16q46 0 84.5 15.5t66.5 44t43.5 67.5t15.5 86zM389 911l61 -154l-80 -9l-79 163h98z" />
    <glyph glyph-name="Oacute" unicode="&#xd3;" horiz-adv-x="735" 
d="M715 338q0 -75 -27 -139.5t-75 -112t-113 -74t-141 -26.5q-72 0 -134 26.5t-108.5 73t-73 110t-26.5 136.5t26.5 136.5t73 111t109.5 74.5t135 27q75 0 140 -26t112.5 -72t74.5 -109t27 -136zM574 335q0 45 -16 84t-44 67.5t-66.5 45t-83.5 16.5q-44 0 -82 -16.5t-66 -45
t-44 -67.5t-16 -85t15.5 -84.5t43.5 -67t66 -44.5t83 -16q46 0 84.5 15.5t66.5 44t43.5 67.5t15.5 86zM447 911l-80 -163l-79 9l61 154h98v0z" />
    <glyph glyph-name="Ocircumflex" unicode="&#xd4;" horiz-adv-x="735" 
d="M715 338q0 -75 -27 -139.5t-75 -112t-113 -74t-141 -26.5q-72 0 -134 26.5t-108.5 73t-73 110t-26.5 136.5t26.5 136.5t73 111t109.5 74.5t135 27q75 0 140 -26t112.5 -72t74.5 -109t27 -136zM574 335q0 45 -16 84t-44 67.5t-66.5 45t-83.5 16.5q-44 0 -82 -16.5t-66 -45
t-44 -67.5t-16 -85t15.5 -84.5t43.5 -67t66 -44.5t83 -16q46 0 84.5 15.5t66.5 44t43.5 67.5t15.5 86zM451 751l-86 79l-87 -82l-52 47l135 137l143 -131z" />
    <glyph glyph-name="Otilde" unicode="&#xd5;" horiz-adv-x="735" 
d="M715 338q0 -75 -27 -139.5t-75 -112t-113 -74t-141 -26.5q-72 0 -134 26.5t-108.5 73t-73 110t-26.5 136.5t26.5 136.5t73 111t109.5 74.5t135 27q75 0 140 -26t112.5 -72t74.5 -109t27 -136zM574 335q0 45 -16 84t-44 67.5t-66.5 45t-83.5 16.5q-44 0 -82 -16.5t-66 -45
t-44 -67.5t-16 -85t15.5 -84.5t43.5 -67t66 -44.5t83 -16q46 0 84.5 15.5t66.5 44t43.5 67.5t15.5 86zM524 819q-19 -36 -44.5 -52.5t-61.5 -16.5q-15 0 -28 4.5t-33 15.5q-18 10 -28.5 14t-19.5 4q-15 0 -23.5 -8t-19.5 -32l-55 53q23 40 44 55t56 15q14 0 29 -5t39 -17
l23 -11q16 -8 25 -8q12 0 21.5 9.5t21.5 34.5z" />
    <glyph glyph-name="Odieresis" unicode="&#xd6;" horiz-adv-x="735" 
d="M715 338q0 -75 -27 -139.5t-75 -112t-113 -74t-141 -26.5q-72 0 -134 26.5t-108.5 73t-73 110t-26.5 136.5t26.5 136.5t73 111t109.5 74.5t135 27q75 0 140 -26t112.5 -72t74.5 -109t27 -136zM574 335q0 45 -16 84t-44 67.5t-66.5 45t-83.5 16.5q-44 0 -82 -16.5t-66 -45
t-44 -67.5t-16 -85t15.5 -84.5t43.5 -67t66 -44.5t83 -16q46 0 84.5 15.5t66.5 44t43.5 67.5t15.5 86zM518 813q0 -27 -18.5 -45.5t-44.5 -18.5t-44.5 17.5t-18.5 43.5q0 29 19 48.5t46 19.5q26 0 43.5 -19t17.5 -46zM342 812q0 -27 -18 -45.5t-44 -18.5t-45 18.5t-19 44.5
q0 28 18.5 47.5t44.5 19.5t44.5 -19.5t18.5 -46.5z" />
    <glyph glyph-name="Oslash" unicode="&#xd8;" horiz-adv-x="736" 
d="M644 548q22 -28 36 -50.5t22 -46t11 -51t3 -65.5q0 -75 -27.5 -139t-75.5 -111t-114 -73.5t-143 -26.5q-27 0 -48.5 2t-41 8t-40 15.5t-46.5 24.5l-38 -40l-73 66l34 39q-26 33 -42.5 59.5t-26.5 52.5t-13.5 54.5t-3.5 66.5q0 73 27 136.5t74 110.5t110 74t136 27
q31 0 55 -2.5t47 -10t47.5 -20t56.5 -32.5l48 53l73 -67zM478 515q-17 10 -30 16t-25.5 9.5t-26 5t-30.5 1.5q-45 0 -83.5 -16t-66 -44.5t-43.5 -68t-16 -85.5q0 -20 1.5 -35.5t6 -30t12.5 -29t21 -33.5zM548 442l-274 -302q14 -6 24.5 -9.5t20 -6t19.5 -3t24 -0.5
q47 0 86 15.5t67 44t43.5 68t15.5 86.5q0 16 -1 28t-4 24t-8 25t-13 30z" />
    <glyph glyph-name="Ugrave" unicode="&#xd9;" horiz-adv-x="611" 
d="M568 277q0 -42 -3 -74t-10.5 -57.5t-19.5 -45.5t-29 -38q-71 -74 -201 -74q-79 0 -138 29t-91 83q-18 31 -26 69.5t-8 98.5v398h137v-407q0 -146 125 -146q128 0 128 148v405h136v-389zM326 896l61 -154l-80 -9l-79 163h98z" />
    <glyph glyph-name="Uacute" unicode="&#xda;" horiz-adv-x="611" 
d="M568 277q0 -42 -3 -74t-10.5 -57.5t-19.5 -45.5t-29 -38q-71 -74 -201 -74q-79 0 -138 29t-91 83q-18 31 -26 69.5t-8 98.5v398h137v-407q0 -146 125 -146q128 0 128 148v405h136v-389zM389 896l-80 -163l-79 9l61 154h98v0z" />
    <glyph glyph-name="Ucircumflex" unicode="&#xdb;" horiz-adv-x="611" 
d="M568 277q0 -42 -3 -74t-10.5 -57.5t-19.5 -45.5t-29 -38q-71 -74 -201 -74q-79 0 -138 29t-91 83q-18 31 -26 69.5t-8 98.5v398h137v-407q0 -146 125 -146q128 0 128 148v405h136v-389zM388 736l-86 79l-87 -82l-52 47l135 137l143 -131z" />
    <glyph glyph-name="Udieresis" unicode="&#xdc;" horiz-adv-x="611" 
d="M568 277q0 -42 -3 -74t-10.5 -57.5t-19.5 -45.5t-29 -38q-71 -74 -201 -74q-79 0 -138 29t-91 83q-18 31 -26 69.5t-8 98.5v398h137v-407q0 -146 125 -146q128 0 128 148v405h136v-389zM457 798q0 -27 -18.5 -45.5t-44.5 -18.5t-44.5 17.5t-18.5 43.5q0 29 19 48.5
t46 19.5q26 0 43.5 -19t17.5 -46zM281 797q0 -27 -18 -45.5t-44 -18.5t-45 18.5t-19 44.5q0 28 18.5 47.5t44.5 19.5t44.5 -19.5t18.5 -46.5z" />
    <glyph glyph-name="germandbls" unicode="&#xdf;" horiz-adv-x="496" 
d="M343 397q22 -8 38.5 -15.5t29 -17t22.5 -22t20 -30.5q27 -47 27 -104q0 -44 -17.5 -83.5t-46.5 -69.5t-67.5 -47.5t-81.5 -17.5q-21 0 -36.5 3t-43.5 11v113q13 -6 23 -9t18 -5t15.5 -2.5t17.5 -0.5q41 0 68 30t27 75q0 57 -39 90.5t-105 33.5h-8v101q74 15 74 81
q0 26 -17 43.5t-43 17.5q-32 0 -46 -23.5t-14 -81.5v-467h-128v483q0 42 7 72t22 54q23 35 65 56.5t89 21.5q40 0 74.5 -13t60.5 -35.5t41 -53t15 -64.5q0 -21 -3 -37.5t-9.5 -30.5t-18.5 -27.5t-30 -28.5z" />
    <glyph glyph-name="agrave" unicode="&#xe0;" horiz-adv-x="529" 
d="M499 0h-128v54q-34 -32 -68 -46t-77 -14q-45 0 -84 17t-67.5 47t-44.5 70.5t-16 88.5t16 90t44.5 73t67 49t82.5 18q41 0 74.5 -15t72.5 -50v58h128v-440zM373 220q0 24 -8.5 44.5t-23.5 35.5t-36 23.5t-45 8.5q-48 0 -79.5 -32.5t-31.5 -82.5t31 -81.5t79 -31.5
q51 0 82.5 31.5t31.5 84.5zM264 677l61 -154l-80 -9l-79 163h98z" />
    <glyph glyph-name="aacute" unicode="&#xe1;" horiz-adv-x="529" 
d="M499 0h-128v54q-34 -32 -68 -46t-77 -14q-45 0 -84 17t-67.5 47t-44.5 70.5t-16 88.5t16 90t44.5 73t67 49t82.5 18q41 0 74.5 -15t72.5 -50v58h128v-440zM373 220q0 24 -8.5 44.5t-23.5 35.5t-36 23.5t-45 8.5q-48 0 -79.5 -32.5t-31.5 -82.5t31 -81.5t79 -31.5
q51 0 82.5 31.5t31.5 84.5zM363 677l-80 -163l-79 9l61 154h98v0z" />
    <glyph glyph-name="acircumflex" unicode="&#xe2;" horiz-adv-x="529" 
d="M499 0h-128v54q-34 -32 -68 -46t-77 -14q-45 0 -84 17t-67.5 47t-44.5 70.5t-16 88.5t16 90t44.5 73t67 49t82.5 18q41 0 74.5 -15t72.5 -50v58h128v-440zM373 220q0 24 -8.5 44.5t-23.5 35.5t-36 23.5t-45 8.5q-48 0 -79.5 -32.5t-31.5 -82.5t31 -81.5t79 -31.5
q51 0 82.5 31.5t31.5 84.5zM333 517l-86 79l-87 -82l-52 47l135 137l143 -131z" />
    <glyph glyph-name="atilde" unicode="&#xe3;" horiz-adv-x="529" 
d="M499 0h-128v54q-34 -32 -68 -46t-77 -14q-45 0 -84 17t-67.5 47t-44.5 70.5t-16 88.5t16 90t44.5 73t67 49t82.5 18q41 0 74.5 -15t72.5 -50v58h128v-440zM373 220q0 24 -8.5 44.5t-23.5 35.5t-36 23.5t-45 8.5q-48 0 -79.5 -32.5t-31.5 -82.5t31 -81.5t79 -31.5
q51 0 82.5 31.5t31.5 84.5zM418 586q-19 -36 -44.5 -52.5t-61.5 -16.5q-15 0 -28 4.5t-33 15.5q-18 10 -28.5 14t-19.5 4q-15 0 -23.5 -8t-19.5 -32l-55 53q23 40 44 55t56 15q14 0 29 -5t39 -17l23 -11q16 -8 25 -8q12 0 21.5 9.5t21.5 34.5z" />
    <glyph glyph-name="adieresis" unicode="&#xe4;" horiz-adv-x="529" 
d="M499 0h-128v54q-34 -32 -68 -46t-77 -14q-45 0 -84 17t-67.5 47t-44.5 70.5t-16 88.5t16 90t44.5 73t67 49t82.5 18q41 0 74.5 -15t72.5 -50v58h128v-440zM373 220q0 24 -8.5 44.5t-23.5 35.5t-36 23.5t-45 8.5q-48 0 -79.5 -32.5t-31.5 -82.5t31 -81.5t79 -31.5
q51 0 82.5 31.5t31.5 84.5zM415 580q0 -27 -18.5 -45.5t-44.5 -18.5t-44.5 17.5t-18.5 43.5q0 29 19 48.5t46 19.5q26 0 43.5 -19t17.5 -46zM239 579q0 -27 -18 -45.5t-44 -18.5t-45 18.5t-19 44.5q0 28 18.5 47.5t44.5 19.5t44.5 -19.5t18.5 -46.5z" />
    <glyph glyph-name="aring" unicode="&#xe5;" horiz-adv-x="529" 
d="M499 0h-128v54q-34 -32 -68 -46t-77 -14q-45 0 -84 17t-67.5 47t-44.5 70.5t-16 88.5t16 90t44.5 73t67 49t82.5 18q41 0 74.5 -15t72.5 -50v58h128v-440zM373 220q0 24 -8.5 44.5t-23.5 35.5t-36 23.5t-45 8.5q-48 0 -79.5 -32.5t-31.5 -82.5t31 -81.5t79 -31.5
q51 0 82.5 31.5t31.5 84.5zM349 606q0 -19 -7.5 -36t-20 -29.5t-29.5 -19.5t-36 -7t-36 7t-29.5 19.5t-19.5 29t-7 35.5q0 20 7 37.5t19.5 30t29.5 20t36 7.5t36 -7.5t29.5 -20t20 -30t7.5 -36.5zM298 604q0 17 -12 29.5t-29 12.5t-28 -12.5t-11 -30.5q0 -17 11.5 -28
t28.5 -11t28.5 11.5t11.5 28.5z" />
    <glyph glyph-name="ae" unicode="&#xe6;" horiz-adv-x="775" 
d="M437 190q8 -47 36 -72.5t73 -25.5q35 0 62 16.5t49 51.5l93 -60q-24 -38 -42.5 -56.5t-47.5 -33.5q-53 -25 -112 -25q-51 0 -92 14.5t-75 46.5q-35 -34 -73.5 -47t-96.5 -13q-93 0 -145 40.5t-52 114.5q0 66 47 106t125 40q19 0 33 -1t27 -4.5t26.5 -9.5t30.5 -16
q-7 98 -114 98q-34 0 -65 -9.5t-71 -31.5v105q23 10 42 16t36 10t34 5.5t37 1.5q57 0 94.5 -14.5t72.5 -49.5q38 35 77 50.5t89 15.5q106 0 163.5 -67.5t60.5 -195.5h-322zM317 139q-2 26 -27.5 42.5t-65.5 16.5q-36 0 -56.5 -15.5t-20.5 -42.5q0 -30 24.5 -48.5t64.5 -18.5
q35 0 58 18t23 45v3zM621 278q-17 73 -90 73q-35 0 -58.5 -19t-33.5 -54h182z" />
    <glyph glyph-name="ccedilla" unicode="&#xe7;" horiz-adv-x="353" 
d="M347 294q-30 18 -52.5 26t-45.5 8q-22 0 -41 -8.5t-33.5 -23.5t-22.5 -35.5t-8 -43.5q0 -24 8.5 -44.5t23 -35.5t34 -23.5t42.5 -8.5q26 0 44.5 6t50.5 26v-127q-17 -7 -30 -11t-25 -6.5t-24.5 -3.5t-28.5 -1q-50 0 -91.5 16.5t-71.5 46.5t-46.5 71.5t-16.5 90.5t17 91
t47 73t71 48.5t89 17.5q15 0 27 -1t24 -4t26 -8t33 -12v-124zM175 -219l-69 48l103 132l89 -61z" />
    <glyph glyph-name="egrave" unicode="&#xe8;" horiz-adv-x="484" 
d="M146 190q8 -48 36 -73t73 -25q35 0 60 15t51 52l93 -59q-38 -60 -86.5 -87.5t-117.5 -27.5q-53 0 -96.5 17t-74.5 48.5t-48.5 75.5t-17.5 97q0 51 16 93t45.5 72.5t70 47.5t88.5 17q110 0 169 -67.5t61 -195.5h-322zM331 277q-22 74 -92 74q-71 0 -93 -74h185zM253 683
l61 -154l-80 -9l-79 163h98z" />
    <glyph glyph-name="eacute" unicode="&#xe9;" horiz-adv-x="484" 
d="M146 190q8 -48 36 -73t73 -25q35 0 60 15t51 52l93 -59q-38 -60 -86.5 -87.5t-117.5 -27.5q-53 0 -96.5 17t-74.5 48.5t-48.5 75.5t-17.5 97q0 51 16 93t45.5 72.5t70 47.5t88.5 17q110 0 169 -67.5t61 -195.5h-322zM331 277q-22 74 -92 74q-71 0 -93 -74h185zM352 683
l-80 -163l-79 9l61 154h98v0z" />
    <glyph glyph-name="ecircumflex" unicode="&#xea;" horiz-adv-x="484" 
d="M146 190q8 -48 36 -73t73 -25q35 0 60 15t51 52l93 -59q-38 -60 -86.5 -87.5t-117.5 -27.5q-53 0 -96.5 17t-74.5 48.5t-48.5 75.5t-17.5 97q0 51 16 93t45.5 72.5t70 47.5t88.5 17q110 0 169 -67.5t61 -195.5h-322zM331 277q-22 74 -92 74q-71 0 -93 -74h185zM327 523
l-86 79l-87 -82l-52 47l135 137l143 -131z" />
    <glyph glyph-name="edieresis" unicode="&#xeb;" horiz-adv-x="484" 
d="M146 190q8 -48 36 -73t73 -25q35 0 60 15t51 52l93 -59q-38 -60 -86.5 -87.5t-117.5 -27.5q-53 0 -96.5 17t-74.5 48.5t-48.5 75.5t-17.5 97q0 51 16 93t45.5 72.5t70 47.5t88.5 17q110 0 169 -67.5t61 -195.5h-322zM331 277q-22 74 -92 74q-71 0 -93 -74h185zM399 586
q0 -27 -18.5 -45.5t-44.5 -18.5t-44.5 17.5t-18.5 43.5q0 29 19 48.5t46 19.5q26 0 43.5 -19t17.5 -46zM223 585q0 -27 -18 -45.5t-44 -18.5t-45 18.5t-19 44.5q0 28 18.5 47.5t44.5 19.5t44.5 -19.5t18.5 -46.5z" />
    <glyph glyph-name="igrave" unicode="&#xec;" horiz-adv-x="193" 
d="M163 0h-133v440h133v-440zM115 671l61 -154l-80 -9l-79 163h98z" />
    <glyph glyph-name="iacute" unicode="&#xed;" horiz-adv-x="193" 
d="M163 0h-133v440h133v-440zM187 671l-80 -163l-79 9l61 154h98v0z" />
    <glyph glyph-name="icircumflex" unicode="&#xee;" horiz-adv-x="193" 
d="M163 0h-133v440h133v-440zM185 510l-86 79l-87 -82l-52 47l135 137l143 -131z" />
    <glyph glyph-name="idieresis" unicode="&#xef;" horiz-adv-x="193" 
d="M163 0h-133v440h133v-440zM254 573q0 -27 -18.5 -45.5t-44.5 -18.5t-44.5 17.5t-18.5 43.5q0 29 19 48.5t46 19.5q26 0 43.5 -19t17.5 -46zM78 572q0 -27 -18 -45.5t-44 -18.5t-45 18.5t-19 44.5q0 28 18.5 47.5t44.5 19.5t44.5 -19.5t18.5 -46.5z" />
    <glyph glyph-name="ntilde" unicode="&#xf1;" horiz-adv-x="489" 
d="M163 384q29 33 63 48.5t78 15.5q48 0 85 -21.5t52 -56.5q9 -22 13.5 -51t4.5 -70v-249h-132v243q-1 93 -74 93q-43 0 -66.5 -25.5t-23.5 -72.5v-238h-133v440h133v-56zM400 587q-19 -36 -44.5 -52.5t-61.5 -16.5q-15 0 -28 4.5t-33 15.5q-18 10 -28.5 14t-19.5 4
q-15 0 -23.5 -8t-19.5 -32l-55 53q23 40 44 55t56 15q14 0 29 -5t39 -17l23 -11q16 -8 25 -8q12 0 21.5 9.5t21.5 34.5z" />
    <glyph glyph-name="ograve" unicode="&#xf2;" horiz-adv-x="511" 
d="M492 219q0 -51 -17.5 -93t-49 -72t-75.5 -47t-96 -17q-51 0 -94.5 17t-75 47.5t-49 72t-17.5 91.5t18 92.5t50 73.5t76 48.5t96 17.5q50 0 92.5 -17.5t74 -48.5t49.5 -73.5t18 -91.5zM369 220q-2 50 -33.5 80.5t-79.5 30.5q-24 0 -44.5 -8.5t-35 -23.5t-23 -36t-8.5 -46
q0 -24 8.5 -44.5t24 -35.5t36 -23.5t44.5 -8.5q23 0 43.5 8.5t35.5 23.5t23.5 35.5t8.5 43.5v4zM267 680l61 -154l-80 -9l-79 163h98z" />
    <glyph glyph-name="oacute" unicode="&#xf3;" horiz-adv-x="511" 
d="M492 219q0 -51 -17.5 -93t-49 -72t-75.5 -47t-96 -17q-51 0 -94.5 17t-75 47.5t-49 72t-17.5 91.5t18 92.5t50 73.5t76 48.5t96 17.5q50 0 92.5 -17.5t74 -48.5t49.5 -73.5t18 -91.5zM369 220q-2 50 -33.5 80.5t-79.5 30.5q-24 0 -44.5 -8.5t-35 -23.5t-23 -36t-8.5 -46
q0 -24 8.5 -44.5t24 -35.5t36 -23.5t44.5 -8.5q23 0 43.5 8.5t35.5 23.5t23.5 35.5t8.5 43.5v4zM356 680l-80 -163l-79 9l61 154h98v0z" />
    <glyph glyph-name="ocircumflex" unicode="&#xf4;" horiz-adv-x="511" 
d="M492 219q0 -51 -17.5 -93t-49 -72t-75.5 -47t-96 -17q-51 0 -94.5 17t-75 47.5t-49 72t-17.5 91.5t18 92.5t50 73.5t76 48.5t96 17.5q50 0 92.5 -17.5t74 -48.5t49.5 -73.5t18 -91.5zM369 220q-2 50 -33.5 80.5t-79.5 30.5q-24 0 -44.5 -8.5t-35 -23.5t-23 -36t-8.5 -46
q0 -24 8.5 -44.5t24 -35.5t36 -23.5t44.5 -8.5q23 0 43.5 8.5t35.5 23.5t23.5 35.5t8.5 43.5v4zM343 520l-86 79l-87 -82l-52 47l135 137l143 -131z" />
    <glyph glyph-name="otilde" unicode="&#xf5;" horiz-adv-x="511" 
d="M492 219q0 -51 -17.5 -93t-49 -72t-75.5 -47t-96 -17q-51 0 -94.5 17t-75 47.5t-49 72t-17.5 91.5t18 92.5t50 73.5t76 48.5t96 17.5q50 0 92.5 -17.5t74 -48.5t49.5 -73.5t18 -91.5zM369 220q-2 50 -33.5 80.5t-79.5 30.5q-24 0 -44.5 -8.5t-35 -23.5t-23 -36t-8.5 -46
q0 -24 8.5 -44.5t24 -35.5t36 -23.5t44.5 -8.5q23 0 43.5 8.5t35.5 23.5t23.5 35.5t8.5 43.5v4zM412 589q-19 -36 -44.5 -52.5t-61.5 -16.5q-15 0 -28 4.5t-33 15.5q-18 10 -28.5 14t-19.5 4q-15 0 -23.5 -8t-19.5 -32l-55 53q23 40 44 55t56 15q14 0 29 -5t39 -17l23 -11
q16 -8 25 -8q12 0 21.5 9.5t21.5 34.5z" />
    <glyph glyph-name="odieresis" unicode="&#xf6;" horiz-adv-x="511" 
d="M492 219q0 -51 -17.5 -93t-49 -72t-75.5 -47t-96 -17q-51 0 -94.5 17t-75 47.5t-49 72t-17.5 91.5t18 92.5t50 73.5t76 48.5t96 17.5q50 0 92.5 -17.5t74 -48.5t49.5 -73.5t18 -91.5zM369 220q-2 50 -33.5 80.5t-79.5 30.5q-24 0 -44.5 -8.5t-35 -23.5t-23 -36t-8.5 -46
q0 -24 8.5 -44.5t24 -35.5t36 -23.5t44.5 -8.5q23 0 43.5 8.5t35.5 23.5t23.5 35.5t8.5 43.5v4zM408 583q0 -27 -18.5 -45.5t-44.5 -18.5t-44.5 17.5t-18.5 43.5q0 29 19 48.5t46 19.5q26 0 43.5 -19t17.5 -46zM232 582q0 -27 -18 -45.5t-44 -18.5t-45 18.5t-19 44.5
q0 28 18.5 47.5t44.5 19.5t44.5 -19.5t18.5 -46.5z" />
    <glyph glyph-name="divide" unicode="&#xf7;" 
d="M249 589q27 0 45.5 -18.5t18.5 -44.5t-19 -45t-45 -19t-44.5 19t-18.5 45t18.5 44.5t44.5 18.5zM249 218q27 0 45.5 -18.5t18.5 -44.5q0 -27 -18.5 -45.5t-45.5 -18.5q-26 0 -44.5 18.5t-18.5 45.5q0 26 18.5 44.5t44.5 18.5zM491 381v-81h-483v81h483z" />
    <glyph glyph-name="oslash" unicode="&#xf8;" horiz-adv-x="505" 
d="M453 349q39 -59 39 -131q0 -50 -18 -92t-49.5 -72t-76 -47t-96.5 -17q-42 0 -76.5 10.5t-67.5 33.5l-32 -30l-55 60l32 29q-36 57 -36 125q0 50 18 92.5t50 73.5t76 48.5t96 17.5q81 0 139 -43l36 33l55 -60zM359 263l-157 -143q28 -15 56 -15q23 0 43 8.5t35 23.5
t23.5 35.5t8.5 43.5q0 13 -2 23.5t-7 23.5zM149 181l154 140q-14 7 -23 8.5t-25 1.5q-48 0 -79.5 -32t-31.5 -81q0 -12 1 -19t4 -18z" />
    <glyph glyph-name="ugrave" unicode="&#xf9;" horiz-adv-x="482" 
d="M452 207q0 -52 -7 -84t-24 -57q-23 -35 -71 -55.5t-107 -20.5q-61 0 -109.5 22t-74.5 61q-9 13 -14.5 25.5t-8.5 28t-4.5 35t-1.5 45.5v233h129v-220q0 -60 19 -86.5t63 -26.5q45 0 63.5 26t18.5 89v218h129v-233zM249 671l61 -154l-80 -9l-79 163h98z" />
    <glyph glyph-name="uacute" unicode="&#xfa;" horiz-adv-x="482" 
d="M452 207q0 -52 -7 -84t-24 -57q-23 -35 -71 -55.5t-107 -20.5q-61 0 -109.5 22t-74.5 61q-9 13 -14.5 25.5t-8.5 28t-4.5 35t-1.5 45.5v233h129v-220q0 -60 19 -86.5t63 -26.5q45 0 63.5 26t18.5 89v218h129v-233zM328 671l-80 -163l-79 9l61 154h98v0z" />
    <glyph glyph-name="ucircumflex" unicode="&#xfb;" horiz-adv-x="482" 
d="M452 207q0 -52 -7 -84t-24 -57q-23 -35 -71 -55.5t-107 -20.5q-61 0 -109.5 22t-74.5 61q-9 13 -14.5 25.5t-8.5 28t-4.5 35t-1.5 45.5v233h129v-220q0 -60 19 -86.5t63 -26.5q45 0 63.5 26t18.5 89v218h129v-233zM330 510l-86 79l-87 -82l-52 47l135 137l143 -131z" />
    <glyph glyph-name="udieresis" unicode="&#xfc;" horiz-adv-x="482" 
d="M452 207q0 -52 -7 -84t-24 -57q-23 -35 -71 -55.5t-107 -20.5q-61 0 -109.5 22t-74.5 61q-9 13 -14.5 25.5t-8.5 28t-4.5 35t-1.5 45.5v233h129v-220q0 -60 19 -86.5t63 -26.5q45 0 63.5 26t18.5 89v218h129v-233zM398 573q0 -27 -18.5 -45.5t-44.5 -18.5t-44.5 17.5
t-18.5 43.5q0 29 19 48.5t46 19.5q26 0 43.5 -19t17.5 -46zM222 572q0 -27 -18 -45.5t-44 -18.5t-45 18.5t-19 44.5q0 28 18.5 47.5t44.5 19.5t44.5 -19.5t18.5 -46.5z" />
    <glyph glyph-name="ydieresis" unicode="&#xff;" horiz-adv-x="494" 
d="M499 440l-297 -641h-132l113 238l-188 403h146l110 -256l119 256h129v0zM401 573q0 -27 -18.5 -45.5t-44.5 -18.5t-44.5 17.5t-18.5 43.5q0 29 19 48.5t46 19.5q26 0 43.5 -19t17.5 -46zM225 572q0 -27 -18 -45.5t-44 -18.5t-45 18.5t-19 44.5q0 28 18.5 47.5t44.5 19.5
t44.5 -19.5t18.5 -46.5z" />
    <glyph glyph-name="dotlessi" unicode="&#x131;" horiz-adv-x="193" 
d="M163 0h-133v440h133v-440z" />
    <glyph glyph-name="OE" unicode="&#x152;" horiz-adv-x="964" 
d="M711 398v-2h226v-116h-226v-2v-3v-153h232v-122h-368v53q-48 -34 -103 -50.5t-113 -16.5q-72 0 -134 26.5t-108.5 73t-73 110t-26.5 136.5t27 137t73.5 111t109.5 74t135 27q113 0 210 -65l2 -1v52h368v-121h-232v-146zM574 335q0 45 -16 84t-44 67.5t-66.5 45
t-83.5 16.5q-44 0 -82 -16.5t-66 -45t-44 -67.5t-16 -85t15.5 -84.5t43.5 -67t66 -44.5t83 -16q46 0 84.5 15.5t66.5 44t43.5 67.5t15.5 86z" />
    <glyph glyph-name="oe" unicode="&#x153;" horiz-adv-x="834" 
d="M426 54q-33 -32 -76.5 -48t-96.5 -16q-51 0 -94 17t-74.5 47.5t-49 72t-17.5 91.5t18 92.5t50 73.5t76 48.5t96 17.5q99 0 167 -67q31 35 73 52.5t92 17.5q109 0 168 -68t60 -195h-322q8 -48 36.5 -73t72.5 -25q35 0 60 15t52 52l93 -59q-38 -60 -86.5 -87.5
t-117.5 -27.5q-55 0 -100.5 18t-77.5 53zM369 209q-1 5 -1 7.5v7.5v3q-5 48 -35 76t-77 28q-24 0 -44.5 -8.5t-35 -23.5t-23 -36t-8.5 -46q0 -24 8.5 -44.5t24 -35.5t36 -23.5t44.5 -8.5q45 0 76 29.5t35 74.5zM682 277q-22 74 -92 74q-71 0 -93 -74h185z" />
    <glyph glyph-name="Ydieresis" unicode="&#x178;" horiz-adv-x="563" 
d="M576 666l-223 -352v-314h-137v314l-222 352h164l132 -211l134 211h152v0zM435 798q0 -27 -18.5 -45.5t-44.5 -18.5t-44.5 17.5t-18.5 43.5q0 29 19 48.5t46 19.5q26 0 43.5 -19t17.5 -46zM259 797q0 -27 -18 -45.5t-44 -18.5t-45 18.5t-19 44.5q0 28 18.5 47.5t44.5 19.5
t44.5 -19.5t18.5 -46.5z" />
    <glyph glyph-name="florin" unicode="&#x192;" horiz-adv-x="700" 
d="M600 580q-24 49 -66 49q-23 0 -34 -14.5t-17 -49.5l-22 -127h89v-112h-105l-37 -245q-5 -33 -10.5 -56.5t-11.5 -41t-14.5 -31.5t-19.5 -27q-53 -60 -145 -60q-151 0 -194 153h147q11 -20 21.5 -28t27.5 -8q14 0 24.5 5t18.5 16.5t13.5 31t10.5 48.5l38 242h-83v113h100
l24 155q7 46 17.5 69t31.5 40q42 33 105 33q60 0 108 -28t69 -75z" />
    <glyph glyph-name="circumflex" unicode="&#x2c6;" horiz-adv-x="284" 
d="M228 493l-86 79l-87 -82l-52 47l135 137l143 -131z" />
    <glyph glyph-name="caron" unicode="&#x2c7;" horiz-adv-x="0" 
 />
    <glyph glyph-name="breve" unicode="&#x2d8;" horiz-adv-x="0" 
 />
    <glyph glyph-name="dotaccent" unicode="&#x2d9;" horiz-adv-x="0" 
 />
    <glyph glyph-name="ring" unicode="&#x2da;" horiz-adv-x="191" 
d="M188 588q0 -19 -7.5 -36t-20 -29.5t-29.5 -19.5t-36 -7t-36 7t-29.5 19.5t-19.5 29t-7 35.5q0 20 7 37.5t19.5 30t29.5 20t36 7.5t36 -7.5t29.5 -20t20 -30t7.5 -36.5zM137 586q0 17 -12 29.5t-29 12.5t-28 -12.5t-11 -30.5q0 -17 11.5 -28t28.5 -11t28.5 11.5t11.5 28.5
z" />
    <glyph glyph-name="ogonek" unicode="&#x2db;" horiz-adv-x="0" 
 />
    <glyph glyph-name="tilde" unicode="&#x2dc;" horiz-adv-x="320" 
d="M316 597q-19 -36 -44.5 -52.5t-61.5 -16.5q-15 0 -28 4.5t-33 15.5q-18 10 -28.5 14t-19.5 4q-15 0 -23.5 -8t-19.5 -32l-55 53q23 40 44 55t56 15q14 0 29 -5t39 -17l23 -11q16 -8 25 -8q12 0 21.5 9.5t21.5 34.5z" />
    <glyph glyph-name="hungarumlaut" unicode="&#x2dd;" horiz-adv-x="0" 
 />
    <glyph glyph-name="Delta" unicode="&#x394;" horiz-adv-x="666" 
d="M5 0l269 666h112l274 -666h-655v0zM535 76l-205 501l-202 -501h407z" />
    <glyph glyph-name="Delta" unicode="&#x2206;" horiz-adv-x="666" 
d="M5 0l269 666h112l274 -666h-655v0zM535 76l-205 501l-202 -501h407z" />
    <glyph glyph-name="Delta" unicode="&#x2206;" horiz-adv-x="666" 
d="M5 0l269 666h112l274 -666h-655v0zM535 76l-205 501l-202 -501h407z" />
    <glyph glyph-name="Omega" unicode="&#x3a9;" horiz-adv-x="666" 
d="M4 91h170q-45 26 -71.5 51t-46.5 58q-20 34 -30.5 75.5t-10.5 88.5q0 68 24 126.5t66.5 101t100.5 66.5t127 24q68 0 126.5 -24t101 -66.5t66.5 -101t24 -126.5q0 -132 -81 -214q-9 -9 -17 -16.5t-16.5 -14t-19 -13t-25.5 -15.5h170v-91h-280v86q43 24 68 45.5t45 52.5
q47 71 47 169q0 52 -15.5 95.5t-43.5 75t-66 49t-83 17.5q-47 0 -85.5 -17.5t-66 -48.5t-43 -75t-15.5 -96q0 -93 39 -157.5t122 -109.5v-86h-281v91z" />
    <glyph glyph-name="Omega" unicode="&#x2126;" horiz-adv-x="666" 
d="M4 91h170q-45 26 -71.5 51t-46.5 58q-20 34 -30.5 75.5t-10.5 88.5q0 68 24 126.5t66.5 101t100.5 66.5t127 24q68 0 126.5 -24t101 -66.5t66.5 -101t24 -126.5q0 -132 -81 -214q-9 -9 -17 -16.5t-16.5 -14t-19 -13t-25.5 -15.5h170v-91h-280v86q43 24 68 45.5t45 52.5
q47 71 47 169q0 52 -15.5 95.5t-43.5 75t-66 49t-83 17.5q-47 0 -85.5 -17.5t-66 -48.5t-43 -75t-15.5 -96q0 -93 39 -157.5t122 -109.5v-86h-281v91z" />
    <glyph glyph-name="Omega" unicode="&#x2126;" horiz-adv-x="666" 
d="M4 91h170q-45 26 -71.5 51t-46.5 58q-20 34 -30.5 75.5t-10.5 88.5q0 68 24 126.5t66.5 101t100.5 66.5t127 24q68 0 126.5 -24t101 -66.5t66.5 -101t24 -126.5q0 -132 -81 -214q-9 -9 -17 -16.5t-16.5 -14t-19 -13t-25.5 -15.5h170v-91h-280v86q43 24 68 45.5t45 52.5
q47 71 47 169q0 52 -15.5 95.5t-43.5 75t-66 49t-83 17.5q-47 0 -85.5 -17.5t-66 -48.5t-43 -75t-15.5 -96q0 -93 39 -157.5t122 -109.5v-86h-281v91z" />
    <glyph glyph-name="pi" unicode="&#x3c0;" horiz-adv-x="629" 
d="M112 416h-65v81h535v-80h-64v-417h-100v416h-205v-416h-101v416z" />
    <glyph glyph-name="endash" unicode="&#x2013;" 
d="M491 381v-81h-483v81h483z" />
    <glyph glyph-name="emdash" unicode="&#x2014;" horiz-adv-x="714" 
d="M714 206h-714v96h714v-96z" />
    <glyph glyph-name="quoteleft" unicode="&#x2018;" horiz-adv-x="218" 
d="M49 479q0 39 4.5 68.5t15.5 53t29 43t45 37.5l37 -60q-23 -21 -33.5 -38.5t-12.5 -38.5h53v-117h-138v52z" />
    <glyph glyph-name="quoteright" unicode="&#x2019;" horiz-adv-x="218" 
d="M187 630q0 -39 -5 -69t-16 -53.5t-29 -43t-45 -37.5l-37 60q23 22 34 39t13 38h-53v117h138v-51z" />
    <glyph glyph-name="quotedblleft" unicode="&#x201c;" horiz-adv-x="424" 
d="M49 479q0 39 4.5 68.5t15.5 53t29 43t45 37.5l37 -60q-23 -21 -33.5 -38.5t-12.5 -38.5h53v-117h-138v52zM238 479q0 39 5 68.5t16 53t29 43t45 37.5l37 -60q-23 -21 -34 -38.5t-13 -38.5h54v-117h-139v52z" />
    <glyph glyph-name="quotedblright" unicode="&#x201d;" horiz-adv-x="447" 
d="M187 630q0 -39 -5 -69t-16 -53.5t-29 -43t-45 -37.5l-37 60q23 22 34 39t13 38h-53v117h138v-51zM389 630q0 -39 -5 -69t-16 -53.5t-29 -43t-45 -37.5l-37 60q23 22 33.5 39t12.5 38h-53v117h139v-51z" />
    <glyph glyph-name="quotedblbase" unicode="&#x201e;" horiz-adv-x="447" 
d="M187 65q0 -38 -5 -67.5t-16 -53.5t-29 -43.5t-45 -37.5l-37 61q23 21 34 38.5t13 37.5h-53v116h138v-51zM399 65q0 -38 -5 -67.5t-16 -53.5t-29 -43.5t-45 -37.5l-37 61q23 21 34 38.5t13 37.5h-53v116h138v-51z" />
    <glyph glyph-name="dagger" unicode="&#x2020;" horiz-adv-x="515" 
d="M488 381h-179v-528h-104v528h-178v92h178v193h104v-193h179v-92z" />
    <glyph glyph-name="daggerdbl" unicode="&#x2021;" horiz-adv-x="515" 
d="M488 397h-179v-273h179v-89h-179v-181h-103v180h-179v90h178v273h-178v90h178v179h104v-179h179v-90z" />
    <glyph glyph-name="bullet" unicode="&#x2022;" horiz-adv-x="416" 
d="M208 435q41 0 69 -28.5t28 -69.5t-28 -69.5t-69 -28.5t-69.5 28.5t-28.5 69.5t28.5 69.5t69.5 28.5z" />
    <glyph glyph-name="ellipsis" unicode="&#x2026;" horiz-adv-x="703" 
d="M186 67q-1 -31 -23 -52t-54 -21q-30 0 -51.5 21t-21.5 53t22 54t54 22q31 0 52.5 -22.5t21.5 -54.5zM416 67q-1 -31 -23 -52t-54 -21q-31 0 -52 21t-21 53t22 54t54 22q31 0 52.5 -22.5t21.5 -54.5zM643 67q-1 -31 -23 -52t-54 -21q-31 0 -52.5 21t-21.5 53t22 54t54 22
q31 0 53 -22.5t22 -54.5z" />
    <glyph glyph-name="perthousand" unicode="&#x2030;" horiz-adv-x="1285" 
d="M702 666l-495 -666h-107l495 666h107zM312 471q0 -95 -35 -145q-21 -29 -53.5 -45t-69.5 -16q-71 0 -112.5 54t-41.5 146q0 96 41.5 150.5t115.5 54.5q73 0 114 -52.5t41 -146.5zM812 204q0 -95 -35 -144q-21 -29 -53.5 -45t-69.5 -16q-71 0 -113 53.5t-42 145.5
q0 97 42 151.5t116 54.5q73 0 114 -53t41 -147zM1206 200q0 -95 -35 -145q-21 -29 -53.5 -44.5t-69.5 -15.5q-71 0 -113 53.5t-42 144.5q0 97 42 151.5t116 54.5q73 0 114 -52.5t41 -146.5zM229 469q0 59 -19 91.5t-53 32.5q-71 0 -71 -133q0 -57 18 -88t50 -31
q34 0 54.5 35t20.5 93zM729 202q0 59 -19 91.5t-53 32.5q-71 0 -71 -132q0 -57 18 -88t50 -31q34 0 54.5 34.5t20.5 92.5zM1122 198q0 59 -18.5 91.5t-52.5 32.5q-72 0 -72 -133q0 -57 18.5 -88t50.5 -31q34 0 54 35t20 93z" />
    <glyph glyph-name="guilsinglleft" unicode="&#x2039;" horiz-adv-x="363" 
d="M294 399l-149 -155l116 -186l-95 -61l-163 263l206 212z" />
    <glyph glyph-name="guilsinglright" unicode="&#x203a;" horiz-adv-x="353" 
d="M144 472l206 -212l-164 -263l-94 61l116 186l-149 155l85 73v0z" />
    <glyph glyph-name="fraction" unicode="&#x2044;" horiz-adv-x="541" 
d="M571 666l-494 -666h-107l494 666h107v0z" />
    <glyph glyph-name="fraction" unicode="&#x2215;" horiz-adv-x="541" 
d="M571 666l-494 -666h-107l494 666h107v0z" />
    <glyph glyph-name="fraction" unicode="&#x2215;" horiz-adv-x="541" 
d="M571 666l-494 -666h-107l494 666h107v0z" />
    <glyph glyph-name="trademark" unicode="&#x2122;" horiz-adv-x="862" 
d="M829 267h-70v331l-130 -332h-43l-126 332v-331h-72v399h115l105 -264l109 264h112v-399zM340 602h-126v-335h-79v335h-126v64h331v-64z" />
    <glyph glyph-name="partialdiff" unicode="&#x2202;" 
d="M378 373q-2 15 -3.5 25.5t-3.5 20t-5.5 18.5t-8.5 20q-16 35 -37.5 63t-46.5 45q-35 24 -80 38.5t-96 19.5l18 53q18 -1 30.5 -2.5t22.5 -3t18.5 -3.5t19.5 -5q18 -5 38.5 -14t41 -20.5t38.5 -24t31 -24.5q29 -27 54.5 -69t39.5 -86q11 -31 15.5 -66.5t4.5 -74.5
q0 -69 -15.5 -123t-45 -92t-72 -58t-95.5 -20q-48 0 -89 17t-71 47t-47 71t-17 88q0 46 17 86.5t47 70.5t69.5 47.5t84.5 17.5q42 0 74.5 -14t68.5 -48zM244 356q-29 0 -54.5 -11.5t-44 -31t-29.5 -45.5t-11 -56t11 -56t29.5 -45.5t43.5 -31t54 -11.5q28 0 53 11.5t44 31
t29.5 46t10.5 56.5q0 31 -10.5 57.5t-28.5 45.5t-43 29.5t-54 10.5z" />
    <glyph glyph-name="product" unicode="&#x220f;" horiz-adv-x="666" 
d="M673 750v-66h-96v-867h96v-67h-279v66h96v867h-313v-866h95v-67h-277v66h97v867h-97v67h678z" />
    <glyph glyph-name="radical" unicode="&#x221a;" horiz-adv-x="666" 
d="M641 728h-140l-295 -743l-109 311h-73v67h128l58 -195l233 626h198v-66z" />
    <glyph glyph-name="infinity" unicode="&#x221e;" horiz-adv-x="666" 
d="M333 397q42 52 84.5 76t93.5 24q35 0 64.5 -11.5t50.5 -32.5t32.5 -50t11.5 -64q0 -36 -11.5 -65.5t-32 -50.5t-49 -33t-62.5 -12q-97 0 -181 100q-43 -52 -86.5 -76t-94.5 -24q-35 0 -63.5 12t-49 33t-32 50t-11.5 64t11.5 64.5t32.5 50.5t50 33t64 12q48 0 91 -24.5
t87 -75.5zM384 338q68 -81 129 -81q36 0 57.5 21t21.5 57q0 38 -22 60.5t-58 22.5q-33 0 -62.5 -18.5t-65.5 -61.5zM282 338q-38 44 -67.5 62t-62.5 18q-35 0 -56.5 -22.5t-21.5 -57.5q0 -36 21 -58.5t56 -22.5q62 0 131 81z" />
    <glyph glyph-name="integral" unicode="&#x222b;" 
d="M367 596v18q0 55 -7.5 73.5t-29.5 18.5q-20 0 -28 -14.5t-8 -49.5v-30v-42v-618v-48q0 -154 -114 -154q-68 0 -96 53q-11 21 -15.5 45.5t-5.5 68.5h72l1 -10q0 -33 2 -55t6.5 -34.5t13 -17.5t20.5 -5q13 0 20 3.5t11 16t5 37.5t1 69v605q0 37 0.5 61.5t1.5 41t3.5 28
t6.5 23.5q12 33 38 51.5t61 18.5q28 0 48 -8t33 -26t20 -47.5t10 -72.5h-70z" />
    <glyph glyph-name="approxequal" unicode="&#x2248;" horiz-adv-x="499" 
d="M493 479q-37 -63 -67 -89t-68 -26q-10 0 -18 1t-19.5 4.5t-29 11l-45.5 19.5l-43 19q-23 9 -35 12.5t-23 3.5q-26 0 -46 -19t-48 -68l-45 50q37 64 67.5 90.5t68.5 26.5q11 0 22 -1.5t25 -6t32 -12t44 -19.5q24 -11 38.5 -17t24.5 -9.5t16 -4.5t12 -1q25 0 45 18.5
t46 65.5zM493 291q-37 -63 -67 -89t-68 -26q-10 0 -18 1t-19.5 4.5t-29 11l-45.5 19.5l-43 19q-22 9 -34.5 12.5t-23.5 3.5q-26 0 -46.5 -18.5t-47.5 -68.5l-45 50q37 64 67.5 90.5t68.5 26.5q11 0 22 -1.5t25 -6t32 -12t44 -19.5q24 -11 39 -17t24.5 -9.5t15.5 -4.5t12 -1
q25 0 45 18.5t46 65.5z" />
    <glyph glyph-name="notequal" unicode="&#x2260;" 
d="M333 583l71 -32l-45 -90h134v-79h-173l-51 -101h224v-79h-263l-66 -133l-71 33l49 99h-136v80h176l50 100h-226v80h266z" />
    <glyph glyph-name="lessequal" unicode="&#x2264;" 
d="M491 542l-377 -166l377 -152v-89l-483 195v91l483 209v-88zM491 15h-483v96h483v-96z" />
    <glyph glyph-name="greaterequal" unicode="&#x2265;" 
d="M8 224l377 165l-377 152v89l483 -195v-90l-483 -210v89zM491 15h-483v96h483v-96z" />
    <glyph glyph-name="lozenge" unicode="&#x25ca;" horiz-adv-x="666" 
d="M332 682l254 -348l-254 -349l-251 349l251 348v0zM332 565l-157 -231l157 -230l160 230l-160 231v0z" />
    <glyph glyph-name="register" 
d="M250 765q42 0 79 -16t64.5 -43t43.5 -63.5t16 -78.5t-16 -78.5t-43.5 -64t-64.5 -43.5t-79 -16t-79.5 16t-65 43.5t-43.5 64t-16 78.5t16 78.5t43.5 63.5t65 43t79.5 16zM250 724q-33 0 -62.5 -12.5t-51.5 -34.5t-34.5 -51t-12.5 -62t12.5 -62.5t34.5 -51t51.5 -34
t62.5 -12.5t62 12.5t51 34t34.5 51t12.5 62.5t-12.5 62t-34.5 51t-51 34.5t-62 12.5zM262 666q76 0 76 -58q0 -12 -4 -20.5t-15 -19.5q-5 -7 -5 -8t9 -10q11 -8 14 -56q1 -4 1 -6.5v-3.5q1 -2 1 -4.5t2 -5.5q0 -3 0.5 -4l1.5 -3h-43q-4 5 -5 10.5t-2 19.5q-2 31 -10 39.5
t-34 8.5h-37v-78h-45v199h95zM212 578h39q43 0 43 27q0 26 -40 26h-42v-53z" />
    <glyph glyph-name="sumnation" horiz-adv-x="666" 
d="M609 517h-71l-10 166h-400l253 -412l-256 -454h415l6 168h73v-235h-596v70l259 453l-260 408v69h587v-233z" />
    <glyph glyph-name="quotesinglebase" horiz-adv-x="218" 
d="M187 65q0 -38 -5 -67.5t-16 -53.5t-29 -43.5t-45 -37.5l-37 61q23 21 34 38.5t13 37.5h-53v116h138v-51z" />
    <glyph glyph-name="apple" horiz-adv-x="0" 
 />
  </font>
</defs>
</svg>
